<svg id="Layer_1" xmlns="http://www.w3.org/2000/svg" viewBox="0 0 125.43 78.39">
    <defs>
        <style>
            .cls-1,.cls-4{fill:#fff;}.cls-1{stroke:#2d78bb;stroke-miterlimit:2.61;stroke-width:1.89px;}.cls-2{fill:#2d78bb;}.cls-3{fill:#f8e14b;}
        </style>
    </defs>
    <title>Tekengebied 35</title>
    <path class="cls-1"
          d="M65.23,16.07H98a5.27,5.27,0,0,1,5.69,5.44V56.43A5.3,5.3,0,0,1,98,61.87H32.42a5.33,5.33,0,0,1-5.69-5.44V21.51a5.29,5.29,0,0,1,5.69-5.44Z"/>
    <path class="cls-2" d="M49.8,42.62h12l6.71-7.18h12L70.29,46.83H32.55v-7.6H52.79Z"/>
    <path class="cls-3" d="M80.49,35.44h-12l-6.71,7.23H49.71L59.92,31.28H97.7v7.56H77.46Z"/>
    <path class="cls-2"
          d="M92.85,28.48a3.77,3.77,0,0,1-1.94.51,3.56,3.56,0,0,1-3.67-3.44,3.42,3.42,0,0,1,3.54-3.45,4.13,4.13,0,0,1,2.07.47V24.7a2.54,2.54,0,0,0-1.77-.51,1.49,1.49,0,0,0-1.48,1.44,1.41,1.41,0,0,0,1.48,1.23,2.51,2.51,0,0,0,1.77-.46v2.08Zm4.93-1.62v1.62c-1.72,1.27-3.71.21-3.71-1.28v-3h-.84v-2h.84V20.7l2.36-1.27v2.84h1.35v1.79H96.56v2.76c0,.51.84.47,1.22,0ZM80.71,24.4l.38-1.83c2.36-.81,5.73-.34,5.73,1.79v4.5H84.63l-.09-.21c-1,.63-4.72.93-4.21-2,.29-1.74,2.27-2.17,3.5-2.17.63,0,.88-.59.08-.63A7.11,7.11,0,0,0,80.71,24.4Zm-39.81,0,.34-1.83c2.36-.81,5.73-.34,5.73,1.79v4.5H44.74l-.05-.21c-1,.63-4.8.93-4.21-2,.29-1.74,2.23-2.17,3.46-2.17.63,0,.88-.59.12-.63A6.79,6.79,0,0,0,40.9,24.4Zm27,1.23A3.46,3.46,0,0,1,64.3,29a3.49,3.49,0,1,1,3.63-3.4Zm12,1.23v1.62c-1.77,1.27-3.71.21-3.71-1.28v-3h-.84v-2h.84V20.7l2.41-1.27v2.84h1.3v1.79H78.64v2.76C78.64,27.33,79.52,27.29,79.9,26.86Z"/>
    <path class="cls-2"
          d="M37,19a2.73,2.73,0,0,1,1.77,4.76,2.72,2.72,0,0,1-1.44,5.1H32.59V19Zm23.23,9.52a3.7,3.7,0,0,1-5.56-2.93,3.41,3.41,0,0,1,3.5-3.45,4.12,4.12,0,0,1,2.06.47V24.7a2.5,2.5,0,0,0-1.73-.51A1.5,1.5,0,0,0,57,25.63c0,.76.85,1.23,1.52,1.23a2.46,2.46,0,0,0,1.73-.46v2.08Zm-6-3.91v4.29H51.82v-3.7a1,1,0,1,0-1.9,0v3.7H47.56V22.27H50v.56a2.51,2.51,0,0,1,4.21,1.74Zm20.83,0v4.29H72.65v-3.7a1,1,0,1,0-1.9,0v3.7H68.39V22.27h2.36v.56C72.78,21.34,75,22.7,75,24.57Zm8.9-.72c.8,0,.55.63-.08.63-1.23,0-3.21.43-3.5,2.17-.51,2.93,3.2,2.63,4.21,2l.09.21h2.19v-4.5c0-2.13-3.37-2.6-5.73-1.79l-.38,1.83A7.11,7.11,0,0,1,83.91,23.85Z"/>
    <path class="cls-2"
          d="M44.06,23.85c.76,0,.51.63-.13.63-1.22,0-3.16.43-3.45,2.17-.59,2.93,3.24,2.63,4.21,2l.05.21H47v-4.5c0-2.13-3.37-2.6-5.73-1.79L40.9,24.4A6.79,6.79,0,0,1,44.06,23.85Zm20.2-1.79a3.49,3.49,0,1,0,0,7,3.46,3.46,0,0,0,3.63-3.4,3.58,3.58,0,0,0-3.67-3.57Zm14.38,4.76V24.06H79.9V22.27H78.6V19.43L76.19,20.7v1.57h-.84v2h.84v3c0,1.49,1.94,2.55,3.71,1.28V26.86c-.38.43-1.26.47-1.26,0Z"/>
    <path class="cls-2"
          d="M32.59,19v9.86h4.72a2.72,2.72,0,0,0,1.44-5.1A2.73,2.73,0,0,0,37,19ZM60.21,26.4a2.46,2.46,0,0,1-1.73.46c-.67,0-1.52-.46-1.52-1.23a1.5,1.5,0,0,1,1.52-1.44,2.5,2.5,0,0,1,1.73.51V22.57a4.12,4.12,0,0,0-2.06-.47,3.41,3.41,0,0,0-3.5,3.45,3.7,3.7,0,0,0,5.56,2.93ZM50,22.83v-.56h-2.4v6.59h2.36v-3.7a1,1,0,1,1,1.9,0v3.7h2.36V24.57A2.52,2.52,0,0,0,50,22.83Zm20.79,0v-.56H68.39v6.59h2.36v-3.7a1,1,0,1,1,1.9,0v3.7H75V24.57c0-1.87-2.23-3.23-4.26-1.74Zm22.1,3.57a2.51,2.51,0,0,1-1.77.46,1.4,1.4,0,0,1-1.48-1.23,1.49,1.49,0,0,1,1.48-1.44,2.54,2.54,0,0,1,1.77.51V22.57a4.13,4.13,0,0,0-2.07-.47,3.42,3.42,0,0,0-3.54,3.45A3.56,3.56,0,0,0,90.91,29a3.77,3.77,0,0,0,1.94-.51Zm3.71.42V24.06h1.22V22.27H96.43V19.43L94.07,20.7v1.57h-.84v2h.84v3c0,1.49,2,2.55,3.71,1.28V26.86c-.38.43-1.22.47-1.22,0ZM65.65,25.63A1.33,1.33,0,1,1,63,25.55a1.25,1.25,0,0,1,1.31-1.32A1.3,1.3,0,0,1,65.65,25.63Z"/>
    <path class="cls-2"
          d="M35.29,24.87h1.05a1,1,0,1,1,0,2h-1.1ZM44.61,26v.81c0,.89-1.77,1.14-1.77.21S44.1,25.89,44.61,26Zm39.85,0v.81c0,.89-1.73,1.14-1.73.21S84,25.89,84.46,26ZM36.34,21c1.23.55.81,1.87,0,1.87h-1.1V21a2.54,2.54,0,0,1,1.05,0Z"/>
    <path class="cls-4"
          d="M64.3,24.23A1.25,1.25,0,0,0,63,25.55a1.33,1.33,0,1,0,2.66.08A1.3,1.3,0,0,0,64.3,24.23ZM82.73,27c0,.93,1.73.68,1.73-.21V26C84,25.89,82.73,26.14,82.73,27ZM35.29,21v1.87h1.1c.76,0,1.18-1.32,0-1.87A2.54,2.54,0,0,0,35.29,21Zm7.55,6c0,.93,1.77.68,1.77-.21V26C44.1,25.89,42.84,26.14,42.84,27Zm-7.55-.13h1.1a1,1,0,1,0,0-2H35.29Z"/>
    <path class="cls-2"
          d="M61.9,55.71c0-2.29-.93-3.78-3.25-3.78a3.4,3.4,0,0,0-3.5,3.52A3.52,3.52,0,0,0,58.9,59a4.88,4.88,0,0,0,2.87-.76v-2a5.33,5.33,0,0,1-2.32.68c-1.26,0-1.94-.34-1.94-1.23Zm-24.75.34,1.94-2.8v5.56h2.53l0-9.64H39.09l-1.94,2.89-2-2.89H32.59l0,9.64h2.53V53.25l2,2.8Zm27.49-1.11a1.68,1.68,0,0,1,1.52-1,1.92,1.92,0,0,1,1.09.38V52.23a1.08,1.08,0,0,0-.88-.34,2.54,2.54,0,0,0-1.73.76V52H62.36v6.84h2.28V54.94Zm-19.4,3.45a6.63,6.63,0,0,0,2.41.46c2.44,0,3.16-1.27,3.16-2.33,0-1.24-1.27-1.91-2.41-2.08-.16,0-.63-.13-.63-.35s.13-.38.68-.38a5,5,0,0,1,1.73.38l-.09-1.78a7.74,7.74,0,0,0-2.19-.38,2.38,2.38,0,0,0-2.62,2.21c0,1.06.76,1.61,2,1.87.5,0,1,.25,1,.51s-.34.42-.68.42a5.1,5.1,0,0,1-2.32-.42v1.87Z"/>
    <path class="cls-2"
          d="M53.89,56.73v-2.8h1.3V52.1H53.8V49.17l-2.4,1.27V52.1h-.84v1.95h.84v3.06c0,1.53,2,2.55,3.79,1.28V56.73c-.38.38-1.3.47-1.3,0Zm-9.07,2V52.1H42.29v6.63Zm-1.27-6.84A1.42,1.42,0,0,0,45,50.48a1.37,1.37,0,0,0-1.4-1.31,1.31,1.31,0,0,0-1.3,1.31A1.37,1.37,0,0,0,43.55,51.89Zm41.58,6.5a6.67,6.67,0,0,0,2.41.46c2.44,0,3.2-1.27,3.2-2.33,0-1.24-1.26-1.91-2.44-2.08-.17,0-.64-.13-.64-.35s.13-.38.72-.38a5.14,5.14,0,0,1,1.73.38L90,52.31a7.74,7.74,0,0,0-2.19-.38,2.37,2.37,0,0,0-2.61,2.21c0,1.06.75,1.61,2,1.87.5,0,1,.25,1,.51s-.34.42-.68.42a5.1,5.1,0,0,1-2.32-.42v1.87ZM77.71,56a3.62,3.62,0,0,1-2.49.72,3,3,0,0,1-3-2.68,2.71,2.71,0,0,1,3-2.89,3.41,3.41,0,0,1,2.49.77v-2.3A6,6,0,0,0,74.84,49,4.92,4.92,0,0,0,69.7,54,5.13,5.13,0,0,0,75,58.9a5.39,5.39,0,0,0,2.7-.68Zm4.05-2.42c.8,0,.55.68-.08.68-1.27,0-3.29.42-3.55,2.16-.54,3,3.25,2.72,4.26,2.08l.09.17h2.27V54.1c0-2.17-3.45-2.6-5.9-1.79l-.34,1.83a7.34,7.34,0,0,1,3.25-.55Zm11.68-1V49.17H91.08v9.64h2.36V55a1,1,0,1,1,1.94,0v3.78h2.4V54.44c0-2-2.27-3.32-4.34-1.83Z"/>
    <path class="cls-4"
          d="M57.43,54.39a1,1,0,0,1,1.1-.85c.46,0,1,.22,1,.85Zm24.88,1.36v.81c0,.93-1.77,1.15-1.77.21s1.3-1.06,1.77-1Z"/>
</svg>