<?xml version="1.0" encoding="utf-8"?>
<!-- Generator: Adobe Illustrator 22.1.0, SVG Export Plug-In . SVG Version: 6.00 Build 0)  -->
<svg version="1.1" xmlns="http://www.w3.org/2000/svg" xmlns:xlink="http://www.w3.org/1999/xlink" x="0px" y="0px"
     width="125.4px"
     height="78.4px" viewBox="0 0 125.4 78.4" style="enable-background:new 0 0 125.4 78.4;" xml:space="preserve">
<style type="text/css">
	.st0{fill:#AA0024;}
	.st1{fill:#2D3C49;}
	.st2{fill:#2E3D4A;}
</style>
    <g id="Layer_1">
	<title>Tekengebied 4</title>
</g>
    <g id="Laag_2">
	<g transform="matrix(4.1061786,0,0,4.1061786,-550.36414,-1584.3674)">
		<g transform="translate(-15.420692,-22.588056)">
			<g transform="translate(15.55388,29.548733)">
				<path class="st0" d="M138.8,386c-0.6,0-1.1,0-1.7,0c-0.6,0-1,0.4-1,1.1c0,1.1,0,2.3,0,3.4c0,0.6,0.4,1.1,1.1,1.1
					c0.7,0,1.4,0,2.1,0c0.7,0,1.4,0,2.2,0c0.2,0,0.2,0,0.2-0.2c0-1.4,0-2.8,0-4.2c0-0.6-0.4-1.1-1-1.1
					C139.9,386.1,139.3,386,138.8,386L138.8,386z M138.8,387.6c0.3,0,0.7,0,1,0c0.3,0,0.4,0.1,0.4,0.4c0,0.3-0.2,0.4-0.5,0.4
					c-0.3,0-0.7,0-1,0h0c-0.3,0-0.7,0-1,0c-0.3,0-0.4-0.1-0.4-0.4c0-0.3,0.1-0.4,0.4-0.4C138.1,387.6,138.4,387.6,138.8,387.6
					L138.8,387.6z M138.8,389.2c0.4,0,0.7,0,1.1,0c0.3,0,0.4,0.2,0.4,0.4c0,0.2-0.2,0.4-0.4,0.4c-0.4,0-0.7,0-1.1,0h0
					c-0.3,0-0.7,0-1,0c-0.3,0-0.4-0.1-0.4-0.4c0-0.3,0.1-0.4,0.4-0.4C138.1,389.2,138.4,389.2,138.8,389.2L138.8,389.2z"/>
                <path class="st1" d="M144.2,386.1c-0.2,0-0.4,0-0.6,0c-0.4,0-0.5,0.1-0.5,0.5c0,0.8,0,1.5,0,2.3v0c0,0.8,0,1.5,0,2.3
					c0,0.3,0.1,0.4,0.4,0.4c0.4,0,0.9,0,1.3,0c0.7,0,1.2-0.3,1.5-1c0.3-0.7,0.2-1.3-0.3-1.8c-0.1-0.1-0.1-0.1,0-0.2
					c0.4-0.5,0.5-1.1,0.3-1.6c-0.3-0.6-0.8-0.9-1.4-0.9C144.6,386.1,144.4,386.1,144.2,386.1L144.2,386.1z M144,386.8
					c0.3,0,0.5,0,0.8,0c0.4,0,0.8,0.3,0.7,0.8c0,0.4-0.3,0.7-0.8,0.7c-0.3,0-0.5,0-0.8,0c-0.1,0-0.2,0-0.2-0.2c0-0.2,0-0.4,0-0.6
					c0-0.2,0-0.4,0-0.6C143.8,386.9,143.9,386.8,144,386.8L144,386.8L144,386.8z M144,389.1c0.3,0,0.6,0,0.9,0
					c0.5,0,0.8,0.4,0.8,0.8c0,0.4-0.3,0.8-0.8,0.8c-0.3,0-0.6,0-0.9,0c-0.1,0-0.2,0-0.2-0.2c0-0.2,0-0.5,0-0.7c0-0.2,0-0.5,0-0.7
					C143.9,389.1,143.9,389.1,144,389.1L144,389.1z"/>
                <path class="st1" d="M148.3,387.5c-0.7,0-1.5,0.7-1.4,1.5c0,0.4,0,0.7,0,1.1c0,0.5,0.2,0.9,0.6,1.3c0.6,0.4,1.6,0.3,2.1-0.2
					c0.2-0.2,0.2-0.4,0-0.6c-0.2-0.2-0.4-0.2-0.6,0c-0.3,0.3-0.6,0.3-0.9,0.2c-0.3-0.2-0.5-0.4-0.4-0.9c0-0.1,0.1-0.1,0.2-0.1
					c0.3,0,0.5,0,0.8,0h0.4c0.8,0,0.8-0.1,0.8-0.8C149.8,388.1,149.2,387.5,148.3,387.5L148.3,387.5z M148.4,388.2
					c0.4,0,0.7,0.3,0.7,0.6c0,0.1,0,0.2-0.1,0.2c-0.2,0-0.4,0-0.6,0c-0.2,0-0.4,0-0.5,0c-0.1,0-0.2,0-0.2-0.2
					C147.7,388.5,148,388.2,148.4,388.2L148.4,388.2z"/>
                <path class="st1" d="M159.1,389.1c0,0.4,0,0.7,0,1.1c0,0.6-0.3,1.1-0.9,1.3c-0.6,0.3-1.1,0.2-1.6-0.3c-0.3-0.3-0.5-0.6-0.5-1
					c0-0.8,0-1.5,0-2.3c0-0.2,0.2-0.4,0.4-0.4c0.2,0,0.4,0.2,0.4,0.4c0,0.7,0,1.5,0,2.2c0,0.5,0.4,0.9,0.9,0.7
					c0.3-0.1,0.5-0.3,0.5-0.7c0-0.7,0-1.4,0-2.1c0-0.1,0-0.2,0-0.2c0-0.2,0.2-0.3,0.4-0.3c0.2,0,0.4,0.1,0.4,0.3
					C159.1,388.3,159.1,388.7,159.1,389.1L159.1,389.1L159.1,389.1L159.1,389.1z"/>
                <path class="st1" d="M153.1,389.8c0,0.4,0,0.9,0,1.3c0,0.3-0.1,0.4-0.4,0.4c-0.3,0-0.4-0.2-0.4-0.4c0-0.9,0-1.7,0-2.6
					c0-0.2,0-0.2-0.2-0.2c-0.3,0-0.5-0.1-0.5-0.4c0-0.2,0.2-0.4,0.5-0.4c0.3,0,0.2-0.2,0.2-0.3c-0.1-1,0.8-1.4,1.6-1.2
					c0.3,0.1,0.5,0.3,0.5,0.5c0,0.3-0.2,0.5-0.5,0.4c-0.2-0.1-0.4-0.1-0.6-0.1c-0.2,0.1-0.3,0.6-0.2,0.7c0,0,0.1,0,0.1,0
					c0.2,0,0.4,0,0.6,0c0.3,0,0.4,0.1,0.5,0.4c0,0.3-0.1,0.4-0.4,0.4c-0.2,0-0.4,0-0.6,0c-0.1,0-0.2,0-0.2,0.2
					C153.1,388.9,153.1,389.4,153.1,389.8L153.1,389.8L153.1,389.8z"/>
                <path class="st1" d="M161,387.5c0.3,0,0.7,0.2,1,0.5c0.1,0.2,0.1,0.4,0,0.6c-0.2,0.2-0.4,0.2-0.6,0c-0.2-0.2-0.4-0.3-0.7-0.3
					c-0.2,0-0.3,0.1-0.3,0.3c0,0.2,0.1,0.3,0.2,0.3c0.2,0.1,0.4,0.2,0.6,0.3c0.2,0.1,0.4,0.2,0.5,0.3c0.4,0.3,0.6,0.6,0.6,1.1
					c0,0.5-0.3,0.8-0.7,1c-0.6,0.3-1.3,0.1-1.7-0.3c-0.2-0.2-0.2-0.4-0.1-0.6c0.2-0.2,0.4-0.2,0.6,0c0.3,0.3,0.7,0.3,1,0.1
					c0.3-0.2,0.3-0.5,0-0.7c-0.2-0.1-0.5-0.2-0.7-0.3c-0.4-0.2-0.8-0.4-0.9-0.9C159.5,388.1,160.1,387.5,161,387.5L161,387.5z"/>
                <path class="st1" d="M151.2,388.8c0,0.8,0,1.5,0,2.3c0,0.3-0.1,0.5-0.4,0.4c-0.2,0-0.3-0.1-0.3-0.4c0-1.6,0-3.2,0-4.8
					c0-0.2,0.1-0.4,0.4-0.4c0.2,0,0.4,0.1,0.4,0.4C151.2,387.2,151.2,388,151.2,388.8L151.2,388.8z"/>
                <path class="st1" d="M155.5,389.5c0,0.5,0,1,0,1.6c0,0.3-0.1,0.4-0.4,0.4c-0.3,0-0.4-0.1-0.4-0.4c0-1,0-2.1,0-3.1
					c0-0.3,0.1-0.5,0.4-0.5c0.2,0,0.4,0.2,0.4,0.5C155.5,388.5,155.5,389,155.5,389.5L155.5,389.5z"/>
                <path class="st2" d="M155.5,386.5c0,0.4-0.1,0.6-0.4,0.6c-0.3,0-0.4-0.3-0.3-0.7c0-0.2,0.2-0.4,0.5-0.3
					C155.5,386.1,155.5,386.3,155.5,386.5z"/>
			</g>
		</g>
	</g>
</g>
    <g id="Laag_3">
</g>
    <g id="Laag_4">
</g>
</svg>
