<svg id="Layer_1" xmlns="http://www.w3.org/2000/svg" viewBox="0 0 125.43 78.39">
    <defs>
        <style>.cls-1{fill:#000268;}.cls-2{fill:#fff;}.cls-3{fill:#ff0007;}</style>
    </defs>
    <title>Tekengebied 25 kopie</title>
    <g id="layer1">
        <path id="_92653320" class="cls-1"
              d="M9.92,26.47a8,8,0,0,1,8-7.94h86.9a8,8,0,0,1,8,7.94V54.82a8,8,0,0,1-8,7.94H17.89a8,8,0,0,1-8-7.94V26.47Z"/>
        <path id="_92186184" class="cls-2"
              d="M13.19,26.74V54.55a5,5,0,0,0,5,5H63.7V21.78H18.17a5,5,0,0,0-5,5ZM75.46,40.51c0,1.77-.87,3-2.32,3a2.6,2.6,0,0,1-2.35-2.84c0-1.67.94-2.91,2.35-2.91S75.46,39,75.46,40.51ZM67,50.66h3.84v-6h0a3.85,3.85,0,0,0,3.52,1.82c3.31,0,5.08-2.73,5.08-6,0-2.69-1.68-5.61-4.76-5.61a4.38,4.38,0,0,0-4.14,2.26h0v-2H67Zm17.73-8c0-1.06,1-1.47,2.32-1.47.58,0,1.13,0,1.62.06a2.5,2.5,0,0,1-2.37,2.63C85.36,43.88,84.68,43.43,84.68,42.66Zm7.74,3.52a13.62,13.62,0,0,1-.21-2.62V39.42c0-3.39-2.45-4.61-5.29-4.61a11.36,11.36,0,0,0-4.44.79l.06,2.6a7.22,7.22,0,0,1,3.54-.83c1.39,0,2.52.41,2.54,1.92a11.86,11.86,0,0,0-1.79-.15c-2,0-5.74.41-5.74,3.8,0,2.41,2,3.5,4.16,3.5a3.8,3.8,0,0,0,3.52-2h0c0,.58.06,1.15.08,1.75Zm1.73,4.48a10.67,10.67,0,0,0,2.39.26c3.52,0,4.35-2.71,5.44-5.5l4.08-10.35h-3.85l-2.28,7.25h0L97.5,35.07H93.36l4.5,11.37A2,2,0,0,1,95.92,48a4.65,4.65,0,0,1-1.52-.24Z"/>
        <path id="_47303032" class="cls-3"
              d="M22.57,40.53c0-1.52.75-2.78,2.18-2.78a2.44,2.44,0,0,1,2.45,2.63,2.6,2.6,0,0,1-2.45,2.86C23.59,43.24,22.57,42.26,22.57,40.53Zm8.34-5.46H27.43v2h0a4.34,4.34,0,0,0-3.77-2.26c-3.46,0-5,2.48-5,5.78s1.9,5.59,4.95,5.59a4.34,4.34,0,0,0,3.74-1.9h0v.6c0,2.18-1.2,3.22-3.41,3.22a7.69,7.69,0,0,1-3.76-.91l-.19,3a12.92,12.92,0,0,0,4.24.7c4.49,0,6.7-1.47,6.7-6Zm6.49-4.63H33.56v2.81H37.4ZM33.56,46.18H37.4V35.07H33.56ZM48.1,34.94a7.43,7.43,0,0,0-1.3-.13,3.44,3.44,0,0,0-3.29,2.3h0v-2H40V46.18h3.84V41.49c0-2.18,1-3.48,2.8-3.48a4.36,4.36,0,0,1,1.3.13Zm6.61,8.81c-1.77,0-2.49-1.47-2.49-3.11s.72-3.14,2.49-3.14,2.5,1.47,2.5,3.14S56.49,43.75,54.71,43.75Zm0,2.69c3.67,0,6.47-2.13,6.47-5.8s-2.8-5.83-6.47-5.83-6.46,2.13-6.46,5.83S51,46.44,54.71,46.44Z"/>
    </g>
</svg>