<svg id="Layer_1" xmlns="http://www.w3.org/2000/svg" viewBox="0 0 125.43 78.39">
    <defs>
        <style>.cls-1{fill:#fff;}.cls-2{fill:#d50072;}</style>
    </defs>
    <title>Tekengebied 32</title>
    <path class="cls-1" d="M32.11,12.13V68.19H64.8c21.56,0,30.91-12.07,30.91-28.09s-9.35-28-30.91-28Z"/>
    <path d="M35.65,15.66H64.81c19.79,0,27.37,10.81,27.37,24.44,0,16.35-10.59,24.56-27.37,24.56H35.65Zm2.82,2.83V61.83H64.81c15.89,0,24.54-7.41,24.54-21.73,0-14.71-9.37-21.61-24.54-21.61Z"/>
    <path d="M42,43.29h8.42v15H42Z"/>
    <circle cx="46.22" cy="35.73" r="5.24"/>
    <path class="cls-2"
          d="M68.11,38.18v2.43h-6V30.86h5.81v2.43H64.53v1.13h3.21v2.43H64.53v1.33Zm1,2.43,2.94-9.75h3.46l2.94,9.75H76l-.55-1.88H72.24l-.55,1.88ZM73,36.3h1.76l-.81-2.75h-.14L73,36.3Zm6.77-5.44h2.43v7.32h3.59C84.76,24.9,74.31,22,64.81,22H54.68v8.84h1.5c2.73,0,4.43,1.85,4.43,4.83S59,40.61,56.18,40.61h-1.5V58.3H64.81c15.44,0,20.81-7.17,21-17.69H79.72V30.86Zm-25,2.43v4.89h1.5c1,0,2-.3,2-2.48s-1.07-2.41-2-2.41Z"/>
</svg>