<?xml version="1.0" encoding="utf-8"?>
<!-- Generator: Adobe Illustrator 22.1.0, SVG Export Plug-In . SVG Version: 6.00 Build 0)  -->
<svg version="1.1" xmlns="http://www.w3.org/2000/svg" xmlns:xlink="http://www.w3.org/1999/xlink" x="0px" y="0px" width="125.4px"
     height="78.4px" viewBox="0 0 125.4 78.4" style="enable-background:new 0 0 125.4 78.4;" xml:space="preserve">
<style type="text/css">
	.st0{fill:#1A3B73;}
	.st1{fill:#FFFFFF;}
	.st2{fill:#DB812E;}
</style>
    <g id="Layer_1">
	<title>Tekengebied 4</title>
</g>
    <g id="Laag_2">
</g>
    <g id="Laag_3">
	<path class="st0" d="M10.6,32.3c0.8,0,1.3,0.2,1.7,0.5c0.4,0.4,0.5,1,0.5,2v12.7c0,1.8-0.4,2.5-2.5,2.5H10v0.8h9.8v-0.8l-0.3,0
		c-2.2,0-2.5-0.8-2.5-2.5V34.9c0-1,0.2-1.6,0.5-2c0.3-0.3,0.9-0.5,1.7-0.5h0.6v-0.8H10v0.8L10.6,32.3L10.6,32.3z M41.9,44.4
		c0,0-0.2-0.8-0.2-1.2v-5.8c0-3.4,0.4-5.1-2.5-5v-0.8h6.8v0.8c-3,0-2.7,1.7-2.7,5v13.5l-1,0L27.6,35.5c0,0,0.2,0.8,0.2,1.2v9.5
		c-0.1,3.5,0.3,3.9,2.6,3.8v0.8h-7.1v-0.8c2.2,0,2.7-0.3,2.7-4.1v0.2v-9.3l0-1.5c0.1-1.9-0.6-3-2.8-3v-0.8h6.5L41.9,44.4z
		 M66.4,31.2h-0.7l0,0.3c-0.1,0.4-0.2,1-0.6,1c-0.1,0-0.4-0.1-0.8-0.2c-1.5-0.7-3.5-1.1-5.1-1.1c-3.2,0-6.1,1.2-8.2,3.2
		c-1.9,1.9-3,4.5-2.9,7.4c0,2.7,1.1,4.9,3.3,6.8c2.2,1.9,4.7,2.7,8.2,2.7c3,0,4.7-0.4,7.3-1.8l0.5-0.2v-5.1c0-2.2,0.3-2.5,2-2.6
		l0.3,0v-0.8h-8.6v0.8l0.3,0c2,0.1,2.3,0.4,2.3,2.2v4.7c-1.4,1-2.5,1.3-3.8,1.3c-2,0-3.7-0.8-5.1-2.1c-1.6-1.6-2.3-3.9-2.3-6.5
		c0-2.8,0.7-5.2,2.3-6.7c1.2-1.2,2.8-1.9,4.7-1.9c1.7,0,3.6,0.7,4.9,1.8c1.1,0.9,1.6,1.7,2,3.1l0.1,0.2H67L66.4,31.2L66.4,31.2z"/>
        <g>
		<path class="st1" d="M104,50.8c0.5-0.1,1-0.1,1.4-0.4c1.6,0.2,3.2-0.2,4.5-1c0.7-0.5,1.3-1.2,1.8-1.8c0.4-0.6,0.8-1.2,1-1.8
			c0.2-0.4,0.3-0.9,0.4-1.3c0.5-2.1,0.2-4.4-0.5-6.4c-0.1-0.4-0.3-0.7-0.4-1.1c-0.8-1.8-2-3.6-3.8-4.8c-1-0.6-1.9-1.6-2.5-2.6
			c-0.3-0.3-0.6-0.6-1-0.7c0.1,0.2,0.2,0.4,0.3,0.6l0,0c-0.4,0-0.8-0.2-1-0.5l0.3-0.3c-0.1-0.1-0.3-0.1-0.4-0.1
			c-1.2-0.1-2.2,0.4-3.3,0.7l0,0.1c0.7,0.3,0.8,1,1.2,1.5c0.1-0.1,0.3,0,0.4,0c0.2,0,0.4,0.2,0.6,0.1c0-0.2-0.1-0.3-0.1-0.4
			c0.1-0.1,0.3,0,0.4,0c0.3,0.2,0.9,0,1.1,0.4c-0.4,0-0.8,0.1-1.1,0.2c0,0.2,0.2,0.3,0.2,0.4c-0.3-0.1-0.7-0.2-1-0.3l0,0.1
			c0.5,0.5,1.1,0.8,1.7,1c0.9,0.2,1.7-0.2,2.6-0.1c2.2,1,4,3.3,4.8,5.4c0,0.1,0.1,0.2,0.1,0.3c0.7,2,0.8,4.4,0.1,6.4
			c-0.4,0.9-0.8,1.7-1.4,2.3c-0.2,0.3-0.5,0.6-0.8,0.8c-0.9,0.7-2,1-3.2,0.7c-0.1,0-0.2-0.1-0.2-0.2c0-0.2,0.1-0.3,0.1-0.5
			c0.2-1,0.3-2,0.2-3l0-0.1c-0.1-1.5-0.4-2.8-0.9-4.1c-0.4-0.7-0.8-1.6-1.3-2.3c-0.6-0.9-1.4-1.6-2.4-2c-0.6-0.2-1.4-0.2-1.8,0.3
			c-0.3,0.3-0.5,0.7-0.4,1.1c-0.5,0.3-1.1,0.5-1.7,0.6c-0.2,0-0.3,0.1-0.5,0.1c-0.1,0-0.3,0-0.4,0c-0.8-0.1-1.5-0.5-2.1-1
			c0-0.3,0-0.6,0-0.9c-0.3-0.2-0.6-0.5-0.6-0.9l0,0c0.2,0.1,0.4,0.2,0.5,0.3c-0.1-0.5-0.2-0.9-0.4-1.3c-0.2-0.1-0.4-0.2-0.6-0.3
			c-0.2-0.2-0.4-0.4-0.4-0.7c0.2,0.2,0.6,0.1,0.7,0.3c-0.3-0.8-0.3-1.8-0.8-2.6c-0.2-0.6-0.9-0.8-1.3-1.2c-0.2-0.2-0.2-0.5-0.5-0.5
			C91,29,91,28.8,90.9,28.6c0.2,0,0.3,0.1,0.4,0.1c-0.3-0.9-0.7-2-1.6-2.6l-0.2,0.1c-0.4,0.1-0.8,0.1-1.1,0.1
			c0.2-0.2,0.5-0.3,0.7-0.5c-0.3-0.2-0.5-0.2-0.8-0.3c-0.2,0.2-0.5,0.3-0.8,0.3l0,0c0-0.2-0.1-0.5,0.3-0.5c-0.3-0.2-0.8-0.1-1.2,0
			c-0.1,0.2-0.3,0.4-0.3,0.7c-0.2,0.2-0.3,0.5-0.5,0.6c0-0.5,0.2-0.9,0.3-1.3c-0.3,0.1-0.5,0.2-0.8,0.4c-0.4-0.2-0.9-0.5-1.3-0.7
			c0,0-0.1,0-0.1,0c0.4,0.3,0.2,0.8,0.3,1.2l-0.2-0.2c-0.1-0.3-0.5-0.5-0.5-0.9c-0.4,0.1-0.7,0.2-1.1,0.3l-0.1,0
			c0.3,0,0.5,0.2,0.7,0.4c-0.4,0-0.8-0.1-1.2-0.2c0,0-0.1-0.1-0.1-0.1c-0.2,0.1-0.4,0.2-0.6,0.4c-0.4,0.4-0.8,0.9-1,1.4
			c0.1,0,0.3,0,0.4,0.1c-0.2,0.1-0.4,0.4-0.7,0.5c-0.1,0.3-0.1,0.7-0.1,1c-0.2,0.3-0.4,0.5-0.5,0.8c-0.4,1.2-0.5,2.6-0.4,3.9
			c-0.1,0.1-0.3,0.2-0.4,0.3l0,1.2h0c0.1-0.3,0.4-0.4,0.5-0.6h0.1c0,0.3-0.1,0.6-0.1,0.8l-0.3,0.3c-0.3,0.3-0.1,0.8-0.1,1.2
			c0,0.1,0,0.3,0.1,0.3c0-0.2,0.2-0.3,0.3-0.4c0.2,0,0.3-0.2,0.4-0.2c-0.1,0.3-0.2,0.6-0.3,0.9c-0.1,0-0.1,0.1-0.2,0.2
			c-0.1,0.1-0.1,0.1-0.1,0.2c0.3,1.4,0.7,2.8,1.2,4.2c-0.3,0.6-0.5,1.2-0.8,1.8c0,0.1-0.1,0.2-0.1,0.2c-0.3,0.7-0.4,1.5-0.7,2.2
			c-0.1-0.1-0.3-0.2-0.4-0.2c-0.7-0.2-1.4-0.1-1.9,0.4c-0.4-0.1-0.9,0-1.2,0.2c-0.2,0.2-0.4,0.4-0.5,0.6C74,47.8,74,48,74,48.2
			c-0.3,0.2-0.4,0.5-0.5,0.8c-0.1,0.7,0.1,1.3,0.5,1.8L104,50.8L104,50.8L104,50.8z"/>
            <path class="st1" d="M100,37.2c0,0.2-0.1,0.3,0,0.5c0.1-0.2,0.4-0.2,0.6-0.2c0.5,0,1,0.1,1.5,0.2c-0.1-0.2-0.2-0.4-0.3-0.6
			c-0.3-0.1-0.7,0.1-0.7-0.3c-0.2-0.1-0.4,0-0.6,0C100.3,36.9,100.1,37.1,100,37.2L100,37.2z M81.6,32L81.6,32L81.6,32L81.6,32z
			 M83.8,37.4l0.4-0.3c0,0,0.1,0,0.1,0l0,0.7c0.2,0.2,0.4,0.2,0.6,0.2c0-0.2,0.2-0.3,0.2-0.5c0.1-0.1,0-0.3,0.2-0.4l0,0
			c0,0.2,0,0.4,0.1,0.6c0,0.1,0,0.2,0,0.3c0.3,0,0.5-0.1,0.7-0.2c0-0.2,0.1-0.4,0.1-0.6c0.1-0.1-0.1-0.2,0.1-0.2
			c0.1,0.2,0.2,0.4,0.3,0.6c0.3-0.4,0.5-0.8,0.6-1.3c-0.1-0.1-0.3-0.1-0.4-0.2c-1-0.3-2.3-0.4-3.3,0.1
			C83.4,36.6,83.5,37.1,83.8,37.4L83.8,37.4z M74.2,48.7c0,0.5,0,0.9,0,1.4c0.1,0.2,0.3,0.3,0.4,0.3l0-0.3c0.1-0.4-0.2-0.9,0.1-1.2
			c0.2,0.1,0.3,0.1,0.5,0.2c0.1-0.4,0-0.9-0.4-1.1L74.2,48.7L74.2,48.7z M75.7,48.1c-0.2,0.7-0.4,1.6-0.1,2.3
			c0.2-0.1,0.3-0.2,0.5-0.4c0-0.6-0.1-1.2,0.2-1.6c0.3,0.1,0.5,0.4,0.6,0.7c0.2-0.3,0.3-0.6,0.2-0.9c0-0.3-0.3-0.2-0.4-0.3
			c0-0.2,0-0.5,0.3-0.6l-0.7,0.1C76,47.5,75.8,47.8,75.7,48.1z M77.2,50.1c0,0.1,0,0.2,0.1,0.2c0.1-0.5,0.5-0.8,0.7-1.3
			c0.1-0.2,0.1-0.4,0.3-0.5c0.2,0,0.4,0.2,0.6,0.2c0.1,0.1,0,0.1,0,0.2c0,0.4-0.2,0.8-0.2,1.2h0c0.3-0.3,0.5-0.7,0.8-1.1l0-0.3
			c0.1-0.4-0.4-0.7-0.7-0.8l0.3-0.3l-0.4-0.1c-0.4,0-0.8,0.2-1.1,0.5C77.3,48.6,77.2,49.3,77.2,50.1L77.2,50.1z M78.8,46.6
			c0.1,0,0.3-0.1,0.4,0c0.6,0.2,1.1,0.4,1.6,0.9l0.5,1.3l0.2-0.8l-0.2-0.4c-0.1-0.3-0.5-0.3-0.8-0.3c-0.1-0.1,0-0.3,0-0.4
			c0.1-0.4-0.4-0.4-0.6-0.6c0-0.3-0.3-0.2-0.5-0.2L79.4,46c0-0.1-0.1-0.1-0.2,0c0,0,0,0,0-0.1l-0.1,0C78.9,46.1,78.8,46.3,78.8,46.6
			L78.8,46.6z M79.1,45.2c0,0.1,0.1,0.2,0.1,0.2c0.3-0.1,0.5-0.3,0.8-0.1c0.4,0.4,0.8,0.7,1.3,0.9l0.2,0c0.1,0,0.2,0,0.3,0.2
			c0.1,0.2-0.1,0.3-0.2,0.4c0.3,0.2,0.2,0.6,0.3,0.8l0.4-0.6c-0.1-0.3,0-0.7-0.4-0.7c-0.1-0.1-0.2-0.2-0.2-0.4
			c-0.3-0.2-0.6-0.3-0.8-0.6c-0.2-0.2-0.3-0.4-0.6-0.5c-0.2-0.1-0.4-0.2-0.6-0.2C79.4,44.5,79.4,45,79.1,45.2L79.1,45.2z M79.7,44
			l0.1,0.1c0.3,0,0.6-0.2,0.9-0.1c0.2,0.1,0.5,0.1,0.7,0.2c0.2,0.2,0.3,0.5,0.6,0.6c0.5,0.1,0.8,0.6,0.9,1v-0.2
			c0.1-0.3,0-0.6-0.1-0.8c-0.1-0.1-0.3-0.2-0.4-0.3c0-0.1,0-0.1,0-0.2c-0.2-0.2-0.5-0.3-0.7-0.5c-0.3-0.5-0.9-0.3-1.4-0.5L79.7,44
			L79.7,44z M79.7,39.6c0.1,0.2,0.1,0.4,0.2,0.6c0.2-0.4,0.5-0.5,0.8-0.8c-0.2-0.1-0.4-0.2-0.6-0.2v0C80,39.3,79.8,39.4,79.7,39.6z
			 M80.8,41.6l0.3-0.3c0.3-0.3,0.5-0.6,0.5-1c-0.2-0.1-0.4,0-0.6,0C80.9,40.7,80.8,41.1,80.8,41.6L80.8,41.6z M81,42.4
			c0.4,0,0.8,0.1,1.2-0.1l0.3-1.1c-0.1,0-0.2-0.1-0.3,0C82,41.7,81.5,42.2,81,42.4L81,42.4z M81.1,38.6c0.3,0.4,0.7,0.8,1.2,1
			c-0.1-0.5-0.5-0.9-0.7-1.3l0-0.1c-0.2-0.2-0.4-0.3-0.6-0.4C81,38,81.1,38.3,81.1,38.6L81.1,38.6z M82.6,42.5c0.3,0.1,0.7,0,1-0.1
			c0.4-0.1,0.7-0.6,0.8-0.9h-0.5L83.3,42C83,42.1,82.8,42.3,82.6,42.5L82.6,42.5z M82.5,38c0.1,0.5,0.3,0.9,0.6,1.3l0.1-0.9L82.5,38
			z M84.5,40.4c0-0.3-0.1-0.7-0.1-1c-0.2-0.1-0.4-0.1-0.6-0.2C83.8,39.6,84.1,40,84.5,40.4z M84,43.4c0.4-0.1,0.7-0.3,1.1-0.4
			c0.2-0.3,0.6-0.6,0.6-1c-0.3,0.1-0.5,0-0.8,0.1c-0.2,0.3-0.3,0.6-0.6,0.8C84.3,43.1,84.1,43.3,84,43.4z M84.6,44.2l0.5,0.6
			c0.2,0.1,0.5,0.1,0.8-0.1l-0.2-0.5C85.3,44.3,84.9,44.2,84.6,44.2z M85.3,39.9l0.2,0.8c0.4-0.3,0.5-0.8,0.5-1.4
			C85.7,39.6,85.6,39.8,85.3,39.9z M86.5,41.3c0,0.1,0,0.2,0.1,0.3c0.5,0.2,0.5,0.7,1,1c0.3,0.1,0.6,0,0.9-0.1
			c-0.2-0.2-0.4-0.4-0.6-0.6c-0.1-0.1-0.3-0.1-0.2-0.3L86.5,41.3L86.5,41.3z M86.9,44.1c0.2,0.2,0.5,0.4,0.8,0.4c0-0.1,0,0,0,0
			l-0.4-0.8c-0.2,0-0.4,0-0.5,0C86.8,43.9,86.8,44,86.9,44.1L86.9,44.1z M87.5,40.4c-0.2-0.4-0.2-0.9-0.3-1.3
			c-0.2,0.2-0.4,0.4-0.5,0.6C86.6,40.1,87.2,40.3,87.5,40.4L87.5,40.4z M88.2,40c0.2,0.3,0.7,0.2,1,0.1c-0.1-0.2-0.5-0.3-0.6-0.6
			c0-0.4-0.1-0.8-0.3-1.2C88.1,38.9,87.9,39.5,88.2,40L88.2,40z M88.6,41.3c0.6,0.4,1.2,1,2,0.8c0.1,0,0.2,0,0.2-0.1
			c-0.2-0.2-0.5-0.3-0.8-0.4l-0.3-0.4h-0.1C89.3,41.2,89,41.3,88.6,41.3L88.6,41.3z M88.6,46.2L88.6,46.2c0.4-0.3,0.8-0.4,1.3-0.5
			c0.1,0,0,0.2,0.1,0.2c0.3-0.1,0.6-0.1,0.8-0.2c0.3,0,0.6,0,0.8,0.2c0.2,0.3,0.6,0.2,0.9,0.4l0-0.4c-0.6-0.7-1.4-0.7-2.2-0.7l0-0.1
			c-0.2,0-0.4,0-0.6,0.1c-0.3,0-0.5,0.1-0.8,0.2C88.8,45.7,88.7,46,88.6,46.2L88.6,46.2z M89.1,38.8c0.2,0.3,0.6,0.5,1,0.5
			c-0.2-0.2-0.4-0.4-0.5-0.7c0.1-0.5-0.5-0.6-0.8-0.9C88.9,38.1,88.9,38.5,89.1,38.8z M89.1,47.3L89.1,47.3c0.4-0.2,0.9,0,1.2-0.3
			c0.2-0.1,0.2,0.2,0.3,0.2c0.3,0.2,0.3,0.7,0.7,0.6c0.5,0.3,0.4,0.9,0.4,1.3l0.5-0.3c0-0.2,0.1-0.5-0.1-0.7
			c-0.1-0.3-0.4-0.3-0.6-0.5c0.2-0.3-0.2-0.5-0.3-0.7l0,0l0.6,0.1c0.2,0.1,0.3,0.4,0.4,0.6c0.5,0.1,0.6,0.7,0.8,1
			c0.1-0.2,0.1-0.5,0.2-0.8c0-0.2-0.3-0.2-0.4-0.3c0-0.3-0.2-0.6-0.4-0.8c-0.6-0.1-1-0.4-1.7-0.4l-0.5,0.2c-0.3,0.1-0.6,0-0.8,0.2
			C89.2,46.7,89.1,47,89.1,47.3L89.1,47.3z M89.4,44.8l0.1,0.1c0.2-0.1,0.5-0.2,0.8-0.3c0.4-0.1,0.7,0.3,1.1,0.1
			c0.1-0.1,0.2,0,0.3,0.1c0.1,0.3,0.5,0.2,0.7,0.3c-0.1-0.3-0.3-0.8-0.7-0.9c-0.2-0.1-0.4-0.1-0.5-0.2c-0.5-0.5-0.8,0.4-1.3,0.2
			C89.6,44.3,89.4,44.5,89.4,44.8L89.4,44.8z"/>
            <path class="st1" d="M89.5,47.7c0.2,0.2,0.4,0.4,0.7,0.4c0.4,0.2,0.2,0.7,0.4,0.9l0.2-0.2l0,0l0,0l0,0c0.1-0.2,0-0.5-0.1-0.7
			c-0.1-0.1-0.3,0-0.4-0.1c0-0.2-0.1-0.3-0.3-0.4c-0.1-0.1-0.2,0-0.3,0L89.5,47.7L89.5,47.7z M90.2,40.4c0.2,0.3,0.6,0.5,0.9,0.8
			c0.3,0.1,0.6,0.1,0.9,0.1c-0.3-0.2-0.5-0.4-0.7-0.7c-0.1-0.1-0.1-0.3-0.2-0.4C90.8,40.2,90.5,40.2,90.2,40.4z M90.6,38.2
			c0.3,0.3,0.7,0.2,1.1,0.2v0l-0.6-0.5C90.9,37.9,90.7,38.1,90.6,38.2L90.6,38.2z M79.5,32.5l0.3,1.1c0-0.6,0.3-1.1,0.2-1.8l0.3-0.4
			l-0.6,0.2C79.6,31.9,79.5,32.2,79.5,32.5z M79.7,30.6l0.5-0.3v-0.7c-0.2,0.1-0.3,0.3-0.5,0.5L79.7,30.6z"/>
            <path class="st1" d="M89.5,31.7c-0.1,0.2-0.3,0.2-0.4,0.2c0.3-0.5,0.4-1.1,0.2-1.6c0.1,0,0.3-0.1,0.4-0.1l0,0l0.3-0.3
			c0.4-0.3,0.3-0.9,0.4-1.3c-0.2-0.3-0.3-0.7-0.6-1l0,0c-0.2-0.3-0.7-0.3-1-0.4c-0.4-0.2-0.8,0.2-1.1,0.4c-0.1,0-0.1,0.2-0.2,0.2
			c-0.1,0.2-0.2,0.5-0.2,0.7c-0.6-0.1-1.2,0-1.7,0.3c-0.3-0.2-0.6-0.2-0.9-0.3c-0.2,0-0.5,0-0.6-0.1c-0.2-0.3-0.3-0.7-0.7-0.8
			c-0.1,0-0.2-0.2-0.2-0.3c-0.3,0-0.5-0.2-0.7-0.2c-0.4-0.2-0.7,0.1-1,0.3c-0.1,0.1-0.3,0.1-0.4,0.1c-0.2,0.3-0.4,0.7-0.6,1.1
			c0,0.3,0.2,0.6,0.3,0.8c0.1,0.4,0.6,0.7,0.9,0.9c-0.2,0.6-0.2,1.3,0,1.9l0,0c0,0,0,0,0,0c-0.1,0-0.1,0-0.2,0h0
			c0.1,0.6,0.4,1.1,0.8,1.5c0.2,0.1,0.1,0.2,0.2,0.4c0,0.1,0,0.2,0,0.2c-0.9,0-1.8,0.2-2.5,0.6c-0.2,0.1-0.1,0.4-0.1,0.5
			c0.5-0.3,1.1-0.6,1.7-0.7c0.3,0,0.6-0.1,0.8,0l0,0.5c-0.7,0.4-1.5,0.6-2.1,1.2c0,0.2,0,0.4,0,0.6l0.5-0.4c0.5-0.4,1.1-0.7,1.7-1
			c0.2,0.2,0.3,0.4,0.5,0.5c0.4-0.2,0.8-0.4,1.2-0.5c0.2-0.1,0.6,0,0.7-0.3l0.1-0.5c0,0,0,0-0.1,0c-0.3-0.2-0.5-0.4-0.4-0.8
			c-0.1,0-0.2,0.1-0.3,0.1c-0.1,0-0.2,0-0.2-0.1c0-0.1-0.1-0.3,0.1-0.4c0.4-0.2,0.9-0.3,1.4-0.2c0.4,0,0.9,0,1,0.5
			c0,0.1,0,0.3-0.1,0.3c-0.1,0.1-0.3,0-0.4-0.1c-0.1,0.3-0.3,0.6-0.6,0.7l0,0.3c0,0.2,0.1,0.4,0.3,0.4c0.6,0.1,1.1,0.4,1.6,0.8
			c0.2-0.2,0.3-0.4,0.4-0.5c0.9,0.3,1.7,1,2.4,1.6l0-0.5c-0.7-0.6-1.5-1.1-2.3-1.4c0-0.2,0.1-0.3,0.1-0.5c1,0.1,1.9,0.3,2.7,0.8
			l0-0.4c-0.8-0.4-1.7-0.7-2.7-0.8c0-0.1,0-0.1,0-0.2c0.5-0.1,0.8-0.6,0.9-1c0.2-0.3,0.6-0.6,0.5-1c0,0,0-0.1,0-0.1
			C89.5,31.9,89.5,31.8,89.5,31.7L89.5,31.7z"/>
            <path class="st1" d="M90.3,33.3l0.5-0.2l0.1-0.3c0.1-0.4-0.2-0.7-0.3-1L90.3,33.3L90.3,33.3z M91.6,35.2c0.2,0.3,0.5,0.7,0.9,0.5
			c0-0.2-0.1-0.3-0.2-0.5c-0.1-0.1-0.1-0.5-0.4-0.4c-0.2-0.1-0.2-0.3-0.3-0.4C91.6,34.7,91.6,35,91.6,35.2z M91.7,37
			c0.1,0.1,0.1,0.3,0.2,0.4c0.2,0.1,0.4,0.1,0.6,0.1c0.2,0,0.3,0.2,0.5,0c-0.2-0.1-0.3-0.4-0.5-0.5C92.2,36.7,91.9,36.9,91.7,37
			L91.7,37z M92,39.8c0.4,0.2,0.9,0.5,1.5,0.4c0.1,0,0.2,0,0.2-0.1c-0.3-0.1-0.7-0.5-1.1-0.5c-0.2-0.3-0.5,0.1-0.7,0.1
			C91.9,39.7,92,39.7,92,39.8L92,39.8z M93.2,45.1l0.1,0.2c0.1,0.6,0.5,1.2,0.3,1.9c0.2,0.1,0.2,0.3,0.3,0.5h0c0.1-0.5,0-1.1,0-1.6
			C94,45.6,93.5,45.3,93.2,45.1L93.2,45.1z M93.3,38.9c0.3,0.2,0.8,0.3,1.2,0.1c-0.2-0.1-0.5-0.3-0.7-0.4L93.3,38.9L93.3,38.9z
			 M94.8,40.8c0,0.3,0.1,0.5,0.3,0.6c0.1-0.2,0.2-0.3,0.2-0.4c-0.1-0.3-0.2-0.5-0.4-0.7C94.9,40.4,94.8,40.6,94.8,40.8L94.8,40.8z
			 M94.8,43.5c0,0.3,0.3,0.3,0.4,0.5c0.1,0.1-0.1,0.2-0.1,0.3c0.2,0.3,0.4,0.6,0.4,1c0.1-0.4,0.2-0.7,0.3-1.1c0-0.3-0.4-0.2-0.4-0.5
			c0.1-0.3,0-0.6-0.1-0.9c0,0-0.1-0.1-0.1-0.1C95.1,43,94.8,43.2,94.8,43.5L94.8,43.5z M95.7,42.1l0.3,0.6c0.1,0,0.2-0.2,0.3-0.2
			c0.1-0.3-0.1-0.4-0.2-0.6c-0.1-0.1,0-0.3-0.1-0.5c-0.1,0-0.2-0.1-0.3-0.1L95.7,42.1L95.7,42.1z M96.1,40.5
			c0.2,0.2,0.5,0.4,0.7,0.6c0.2,0.6,0.5,1.2,0.8,1.8c0.1,0.4,0.2,0.8,0.3,1.2c0,0.1,0,0.3,0.2,0.3c0-0.5,0.1-0.9,0.1-1.4
			c-0.2-0.2-0.3-0.3-0.5-0.4v0c0-0.1,0.1-0.2,0.2-0.2c0.1-0.1,0.2-0.1,0.1-0.2c-0.3-0.3-0.3-0.9-0.8-1C97,41.1,97,40.9,97,40.7
			C96.7,40.5,96.4,40.5,96.1,40.5z M96.4,43.7c0.3,0.3,0.2,0.7,0.2,1.1c0,0.2,0.2,0.1,0.3,0.2c0.2,0.3,0.1,0.7,0,1
			c0.2-0.2,0.4-0.5,0.5-0.7c0-0.1,0.1-0.2,0.1-0.3c0.1-0.2-0.1-0.1-0.2-0.1c-0.1,0-0.2-0.1-0.1-0.2c0.2-0.3,0-0.7,0-1
			c-0.1-0.2,0-0.6-0.1-0.8C96.8,43.2,96.2,43.3,96.4,43.7z M96.9,39.5c0.5,0.5,0.9,1.1,1.5,1.6c0-0.2,0-0.5,0-0.7
			c-0.1-0.2-0.2-0.3-0.4-0.4C97.6,39.9,97.4,39.4,96.9,39.5z M98.3,42.3c0,0.1,0,0.1,0.1,0.2c0.2,0.4,0.5,0.8,0.6,1.2
			c0-0.4,0.3-1-0.1-1.3c-0.1-0.1-0.2-0.1-0.3-0.1L98.3,42.3L98.3,42.3z M99.8,46.7c0.2,0.1,0.4-0.1,0.5-0.2c0.2,0,0.3,0,0.4,0.1
			c0,0.1,0,0.2,0,0.3c0.4,0.1,0.7,0.2,1,0.4l0.1-0.1c0-0.3-0.2-0.4-0.4-0.6c-0.1-0.1-0.3,0-0.4-0.1c0.1-0.1,0.1-0.2,0.1-0.3
			c-0.2,0-0.3-0.1-0.5-0.2c-0.1,0-0.2-0.1-0.3,0C100.1,46.3,100.1,46.6,99.8,46.7L99.8,46.7z M100.2,39.1c0.1,0,0.3-0.1,0.4-0.2
			c0.4-0.4,1-0.1,1.5-0.1c-0.1-0.2-0.2-0.3-0.3-0.5c-0.2-0.1-0.3-0.1-0.5-0.1c-0.4-0.2-0.7,0.2-1,0.4
			C100.2,38.7,100.1,39,100.2,39.1L100.2,39.1z M100.2,40.4C100.2,40.4,100.2,40.4,100.2,40.4c0.1,0,0,0.1,0.1,0.1
			c0.2-0.1,0.3-0.2,0.4-0.3c0.4,0,0.6-0.4,1-0.4c0.7,0.1,1.3,0.3,1.9,0.6c0-0.4-0.4-0.7-0.7-0.9c-0.2-0.1-0.3,0-0.5,0.1
			c-0.4,0.3-0.2-0.4-0.5-0.4c-0.4,0.1-0.7,0.2-1.2,0.2c-0.2,0.1-0.4,0.3-0.7,0.3C100.2,40,100.1,40.2,100.2,40.4z M100.5,41.7
			c0.1,0.1,0.3,0.1,0.5,0.1l0.5-0.2c0-0.1-0.2-0.1-0.1-0.2c0.1-0.2,0.3,0,0.5-0.1c0.3,0,0.5-0.3,0.8-0.1c0,0,0,0.1,0,0.1
			c-0.1,0.2,0.1,0.3,0.2,0.4c0.3,0.1,0.6,0.3,0.9,0.2c0-0.2-0.1-0.5-0.2-0.7c-0.2,0-0.4-0.2-0.7-0.3c-0.1,0.1-0.2,0.2-0.4,0.2
			c-0.5-0.1-1-0.4-1.5-0.1c-0.2,0.2-0.5,0.1-0.7,0.2C100.4,41.3,100.4,41.5,100.5,41.7L100.5,41.7z M100.7,45.3c0,0.1-0.1,0.3,0,0.3
			c0.4,0,0.9-0.2,1.2,0.1c0.1,0.1,0.1,0.2,0,0.3l0.5,0.4c0-0.3,0.1-0.5,0.1-0.8c0-0.2-0.1-0.4-0.3-0.5c-0.3,0-0.5-0.4-0.9-0.3
			c-0.2,0-0.3,0.1-0.5,0.1C100.8,45.1,100.8,45.2,100.7,45.3L100.7,45.3z M100.8,42.5c0.1,0.2,0.2,0.4,0.3,0.4
			c0.4-0.2,0.9-0.3,1.3-0.1c0.1,0,0.1,0.2,0.1,0.3c0.2,0.1,0.5,0.2,0.7,0.3l-0.1-0.4c0-0.4-0.5-0.4-0.5-0.8
			c-0.4-0.1-0.9-0.2-1.3-0.1c-0.1,0.1-0.3,0.1-0.5,0.1C100.8,42.4,100.8,42.4,100.8,42.5L100.8,42.5z M100.9,44.4
			c0.2-0.1,0.4-0.3,0.6-0.3c0.4,0,0.7,0.2,1,0.5c0.1,0.1,0.1,0.3,0.3,0.3c-0.1-0.3,0-0.6,0-0.9c-0.3-0.4-0.9-0.1-1.1-0.6l-0.4,0
			c-0.3,0.1-0.2,0.5-0.3,0.7C101,44.3,100.9,44.3,100.9,44.4L100.9,44.4z M103.1,47.1c0.2,0.4,0.6,0.7,0.6,1.1
			c0.1-0.1,0.2-0.2,0.2-0.4c0-0.1-0.1-0.1-0.2-0.2c-0.1-0.2,0-0.3,0.1-0.4c-0.1-0.2-0.3-0.4-0.5-0.6L103.1,47.1L103.1,47.1z
			 M103.9,46.1l0.4,0.6c0.2-0.3,0.2-0.7,0.1-1.1c0-0.1-0.1-0.2-0.2-0.1C104,45.7,104,45.9,103.9,46.1z M102.1,29.6
			c0.2,0.1,0.3,0.2,0.5,0.2c0.1-0.1,0.3-0.1,0.4-0.1c0.2,0.1,0.5,0,0.8,0c-0.2-0.2-0.5-0.3-0.8-0.5
			C102.7,29.3,102.5,29.5,102.1,29.6z M104.5,30.2c0.3,0,0.5,0.3,0.8,0.5c0.3,0,0.5,0.2,0.6,0.4l-0.1-0.3c-0.1-0.3-0.3-0.6-0.5-0.8
			C105,30,104.7,30.1,104.5,30.2L104.5,30.2z"/>
            <path class="st2" d="M82,27.5l0.2,0c0.5,0.2,1.2,0.4,1.3,1c-0.5,0.2-0.9,0.4-1.3,0.8c-0.3-0.3-0.9-0.1-1-0.7
			C81.2,28.3,81.4,27.7,82,27.5L82,27.5z M82.4,30.6c0.5,0,1.1,0,1.6,0c0.1,0.1,0.3,0.2,0.3,0.3c0,0.7-0.2,1.3-0.2,1.9
			c-0.2,0.1-0.5,0.3-0.5,0.6c-0.2,0.1-0.4,0.2-0.6,0.3c-0.1-0.2-0.1-0.5,0.1-0.7c0.2-0.3,0.8-0.3,0.8-0.8c0.2-0.3,0-0.6,0-0.8
			c-0.1-0.2-0.1,0.1-0.2,0.1c-0.2,0-0.4,0.1-0.6,0c-0.1-0.1-0.3-0.2-0.3-0.4C82.6,30.9,82.4,30.8,82.4,30.6L82.4,30.6L82.4,30.6z
			 M83.1,34.5c0.3,0,0.5-0.1,0.8,0c0,0.1-0.2,0.1-0.3,0.1l-0.4,0.2C83,34.9,83.1,34.6,83.1,34.5L83.1,34.5z M84.1,29.5
			c0.3-0.1,0.5-0.3,0.8-0.2c-0.2,0.2-0.4,0.5-0.5,0.7l-0.8,0C83.7,29.8,84,29.6,84.1,29.5L84.1,29.5z M86.6,29.3
			c0.3-0.1,0.3,0.4,0.6,0.4c0.1,0.1,0.1,0.1,0.1,0.2c-0.2,0.1-0.4,0-0.7,0.1c-0.3-0.2-0.1-0.6-0.5-0.6c0,0-0.1-0.1,0-0.1
			C86.3,29.2,86.4,29.3,86.6,29.3L86.6,29.3z M86.4,30.9c0.2-0.2,0.4-0.2,0.6-0.3l1.6,0c0.1,0.1-0.1,0.1-0.1,0.2
			c-0.1,0.1-0.2,0.1-0.3,0.2c-0.2,0-0.2,0.2-0.3,0.3c-0.2,0.2-0.5,0.1-0.8,0.1c-0.1-0.1-0.2-0.2-0.2-0.3l-0.1,0.1
			c0.1,0.3,0.1,0.7,0.1,1.1l0.4,0.2c0,0.6,0.7,0.4,0.9,0.7c-0.1,0.2-0.2,0.4-0.3,0.5c-0.2-0.2-0.5-0.4-0.8-0.5
			c0-0.3-0.4-0.5-0.6-0.7C86.4,32.1,86.4,31.5,86.4,30.9L86.4,30.9L86.4,30.9z M86.9,34.6h0.7L87.6,35L86.9,34.6
			C86.8,34.6,86.9,34.6,86.9,34.6z M88.2,27.8l0.5-0.2c0.3,0.1,0.6,0.3,0.9,0.5c0.2,0.4,0.2,1,0.1,1.4c-0.2,0.2-0.5,0-0.7,0.3h0
			c-0.2-0.6-0.8-1.1-1.3-1.3C87.8,28.2,87.9,28,88.2,27.8L88.2,27.8z"/>
            <path class="st1" d="M100.8,50.8h3.2c0.5-0.1,1-0.1,1.4-0.4c1.6,0.2,3.2-0.2,4.5-1c0.7-0.5,1.3-1.2,1.8-1.8c0.4-0.6,0.8-1.2,1-1.8
			c0.2-0.4,0.3-0.8,0.4-1.3c0.5-2.1,0.2-4.4-0.5-6.4c-0.1-0.4-0.3-0.7-0.4-1.1c-0.8-1.8-2-3.6-3.8-4.8c-1-0.6-1.9-1.6-2.5-2.6
			c-0.3-0.3-0.6-0.6-1-0.7c0.1,0.2,0.2,0.4,0.3,0.6l0,0c-0.4,0-0.8-0.2-1-0.5l0.3-0.3c-0.1-0.1-0.3-0.1-0.4-0.1
			c-1.2-0.1-2.2,0.4-3.3,0.7l0,0.1c0.7,0.3,0.8,1,1.2,1.5c0.1-0.1,0.3,0,0.4,0c0.2,0,0.4,0.2,0.6,0.1c0-0.2-0.1-0.3-0.1-0.4
			c0.1-0.1,0.3,0,0.4,0c0.3,0.2,0.9,0,1.1,0.4c-0.4,0-0.8,0.1-1.1,0.2c0,0.2,0.2,0.3,0.2,0.4c-0.3-0.1-0.7-0.2-1-0.3l0,0.1
			c0.5,0.5,1.1,0.8,1.7,1c0.9,0.2,1.7-0.2,2.6-0.1c2.2,1,4,3.3,4.8,5.4c0,0.1,0.1,0.2,0.1,0.3c0.7,2,0.8,4.4,0.1,6.4
			c-0.4,0.9-0.8,1.7-1.4,2.3c-0.2,0.3-0.5,0.5-0.8,0.8c-0.9,0.7-2,1-3.2,0.7c-0.1,0-0.2-0.1-0.2-0.2c0-0.2,0.1-0.3,0.1-0.5
			c0.2-1,0.3-2,0.2-3c0,0,0-0.1,0-0.1c-0.1-1.5-0.4-2.8-0.9-4.1c-0.4-0.7-0.8-1.6-1.3-2.3c-0.6-0.9-1.4-1.6-2.4-2
			c-0.6-0.2-1.4-0.2-1.8,0.3c-0.3,0.3-0.5,0.7-0.4,1.1c-0.5,0.3-1.1,0.5-1.7,0.6c-0.2,0-0.3,0.1-0.5,0.1c-0.2,0-0.3,0-0.4,0
			c-0.8-0.1-1.5-0.5-2.1-1c0-0.3,0-0.6,0-0.9c-0.3-0.2-0.6-0.5-0.6-0.9l0,0c0.2,0.1,0.4,0.2,0.5,0.3c-0.1-0.5-0.2-0.9-0.4-1.3
			c-0.2-0.1-0.4-0.2-0.6-0.3c-0.2-0.2-0.4-0.4-0.4-0.7c0.2,0.2,0.6,0.1,0.7,0.4c-0.3-0.8-0.3-1.8-0.8-2.6c-0.2-0.6-0.9-0.8-1.3-1.2
			c-0.2-0.2-0.2-0.5-0.5-0.5C91,29,91,28.7,91,28.6c0.1,0,0.3,0.1,0.4,0.1c-0.4-0.9-0.7-2-1.6-2.6l-0.2,0.1
			c-0.4,0.1-0.8,0.1-1.1,0.1c0.2-0.2,0.5-0.3,0.7-0.5c-0.3-0.2-0.5-0.2-0.8-0.3c-0.2,0.2-0.5,0.3-0.8,0.3l0,0c0-0.2-0.1-0.5,0.3-0.5
			c-0.3-0.2-0.8-0.1-1.2,0c-0.1,0.2-0.3,0.4-0.3,0.7c-0.2,0.2-0.3,0.5-0.5,0.6c0-0.5,0.2-0.9,0.3-1.3c-0.3,0.1-0.5,0.2-0.8,0.4
			c-0.4-0.2-0.9-0.5-1.3-0.7c0,0-0.1,0-0.1,0c0.4,0.3,0.2,0.8,0.3,1.2l-0.2-0.2c-0.1-0.3-0.5-0.5-0.5-0.9c-0.4,0.1-0.7,0.2-1.1,0.4
			l-0.1,0c0.3,0,0.5,0.2,0.7,0.4c-0.4,0-0.8-0.1-1.2-0.2c0,0-0.1-0.1-0.1-0.1c-0.2,0.1-0.4,0.2-0.6,0.4c-0.4,0.4-0.8,0.9-1,1.4
			c0.1,0,0.3,0,0.4,0.1c-0.2,0.1-0.4,0.4-0.7,0.5c-0.1,0.3-0.1,0.7-0.1,1c-0.2,0.3-0.4,0.5-0.5,0.8c-0.4,1.2-0.5,2.6-0.4,3.9
			c-0.1,0.1-0.3,0.2-0.4,0.3l0,1.2h0c0.1-0.3,0.4-0.4,0.5-0.6h0.1c0,0.3-0.1,0.6-0.1,0.8L78.4,36c-0.3,0.3-0.1,0.8-0.1,1.2
			c0,0.1,0,0.3,0.1,0.3c0-0.2,0.2-0.3,0.3-0.4c0.2,0,0.3-0.2,0.4-0.2c-0.1,0.3-0.2,0.6-0.3,0.9c-0.1,0-0.1,0.1-0.2,0.2
			c-0.1,0.1-0.1,0.1-0.1,0.2c0.3,1.4,0.7,2.8,1.2,4.2c-0.3,0.6-0.5,1.2-0.8,1.8c0,0.1-0.1,0.2-0.1,0.2c-0.3,0.7-0.4,1.5-0.7,2.2
			c-0.1-0.1-0.3-0.2-0.4-0.2c-0.7-0.2-1.4-0.1-1.9,0.4c-0.4-0.1-0.9,0-1.2,0.2c-0.2,0.2-0.4,0.4-0.5,0.6C74,47.8,74,48,74,48.2
			c-0.3,0.2-0.4,0.5-0.5,0.8c-0.1,0.7,0.1,1.3,0.5,1.8L100.8,50.8L100.8,50.8L100.8,50.8z"/>
            <path class="st2" d="M112.6,37.9c-0.1-0.4-0.3-0.7-0.4-1.1c-0.8-1.8-2-3.6-3.8-4.8c-1-0.6-1.9-1.6-2.5-2.6c-0.3-0.3-0.6-0.6-1-0.7
			c0.1,0.2,0.2,0.4,0.3,0.6l0,0c-0.4,0-0.8-0.2-1-0.5l0.3-0.3c-0.1-0.1-0.3-0.1-0.4-0.1c-1.2-0.1-2.2,0.4-3.3,0.7l0,0.1
			c0.7,0.3,0.8,1,1.2,1.5c0.1-0.1,0.3,0,0.4,0c0.2,0,0.4,0.2,0.6,0.1c0-0.2-0.1-0.3-0.1-0.4c0.1-0.1,0.3,0,0.4,0
			c0.3,0.2,0.9,0,1.1,0.4c-0.4,0-0.8,0.1-1.1,0.2c0,0.2,0.2,0.3,0.2,0.4c-0.3-0.1-0.7-0.2-1-0.3l0,0.1c0.5,0.5,1.1,0.8,1.7,1
			c0.9,0.2,1.7-0.2,2.6-0.1c2.2,1,4,3.3,4.8,5.4c0,0.1,0.1,0.2,0.1,0.3c0.7,2,0.8,4.4,0.1,6.4c-0.4,0.9-0.8,1.7-1.4,2.3
			c-0.2,0.3-0.5,0.5-0.8,0.8c-0.9,0.7-2,1-3.2,0.7c-0.1,0-0.2-0.1-0.2-0.2c0-0.2,0.1-0.3,0.1-0.5c0.2-1,0.3-2,0.2-3c0,0,0-0.1,0-0.1
			c-0.1-1.5-0.4-2.8-0.9-4.1c-0.4-0.7-0.8-1.6-1.3-2.3c-0.6-0.9-1.4-1.6-2.4-2c-0.6-0.2-1.4-0.2-1.8,0.3c-0.3,0.3-0.5,0.7-0.4,1.1
			c-0.5,0.3-1.1,0.5-1.7,0.6c-0.2,0-0.3,0.1-0.5,0.1c-0.2,0-0.3,0-0.4,0c-0.8-0.1-1.5-0.5-2.1-1c0-0.3,0-0.6,0-0.9
			c-0.3-0.2-0.6-0.5-0.6-0.9l0,0c0.2,0.1,0.4,0.2,0.5,0.3c-0.1-0.5-0.2-0.9-0.4-1.3c-0.2-0.1-0.4-0.2-0.6-0.3
			c-0.2-0.2-0.4-0.4-0.4-0.7c0.2,0.2,0.6,0.1,0.7,0.4c-0.3-0.8-0.3-1.8-0.8-2.6c-0.2-0.6-0.9-0.8-1.3-1.2c-0.2-0.2-0.2-0.5-0.5-0.5
			C91,29,91,28.7,91,28.6c0.1,0,0.3,0.1,0.4,0.1c-0.4-0.9-0.7-2-1.6-2.6l-0.2,0.1c-0.4,0.1-0.8,0.1-1.1,0.1c0.2-0.2,0.5-0.3,0.7-0.5
			c-0.3-0.2-0.5-0.2-0.8-0.3c-0.2,0.2-0.5,0.3-0.8,0.3l0,0c0-0.2-0.1-0.5,0.3-0.5c-0.3-0.2-0.8-0.1-1.2,0c-0.1,0.2-0.3,0.4-0.3,0.7
			c-0.2,0.2-0.3,0.5-0.5,0.6c0-0.5,0.2-0.9,0.3-1.3c-0.3,0.1-0.5,0.2-0.8,0.4c-0.4-0.2-0.9-0.5-1.3-0.7c0,0-0.1,0-0.1,0
			c0.4,0.3,0.2,0.8,0.3,1.2l-0.2-0.2c-0.1-0.3-0.5-0.5-0.5-0.9c-0.4,0.1-0.7,0.2-1.1,0.4l-0.1,0c0.3,0,0.5,0.2,0.7,0.4
			c-0.4,0-0.8-0.1-1.2-0.2c0,0-0.1-0.1-0.1-0.1c-0.2,0.1-0.4,0.2-0.6,0.4c-0.4,0.4-0.8,0.9-1,1.4c0.1,0,0.3,0,0.4,0.1
			c-0.2,0.1-0.4,0.4-0.7,0.5c-0.1,0.3-0.1,0.7-0.1,1c-0.2,0.3-0.4,0.5-0.5,0.8c-0.4,1.2-0.5,2.6-0.4,3.9c-0.1,0.1-0.3,0.2-0.4,0.3
			l0,1.2h0c0.1-0.3,0.4-0.4,0.5-0.6h0.1c0,0.3-0.1,0.6-0.1,0.8L78.4,36c-0.3,0.3-0.1,0.8-0.1,1.2c0,0.1,0,0.3,0.1,0.3
			c0-0.2,0.2-0.3,0.3-0.4c0.2,0,0.3-0.2,0.4-0.2c-0.1,0.3-0.2,0.6-0.3,0.9c-0.1,0-0.1,0.1-0.2,0.2c-0.1,0.1-0.1,0.1-0.1,0.2
			c0.3,1.4,0.7,2.8,1.2,4.2c-0.3,0.6-0.5,1.2-0.8,1.8c0,0.1-0.1,0.2-0.1,0.2c-0.3,0.7-0.4,1.5-0.7,2.2c-0.1-0.1-0.3-0.2-0.4-0.2
			c-0.7-0.2-1.4-0.1-1.9,0.4c-0.4-0.1-0.9,0-1.2,0.2c-0.2,0.2-0.4,0.4-0.5,0.6C74,47.8,74,48,74,48.2c-0.3,0.2-0.4,0.5-0.5,0.8
			c-0.1,0.7,0.1,1.3,0.5,1.8h10.7c-0.2-0.2-0.3-0.4-0.4-0.7c-0.2-0.3-0.1-0.8-0.1-1.2c0.2-0.4,0.4-0.9,0.7-1.3
			c0.1-0.1,0.1-0.2,0.2-0.3l0.5-0.2c0.3,0,0.5-0.2,0.7-0.1c0.3,0.3,0.3-0.3,0.7-0.4c0.7-0.1,1.5,0,1.9,0.6c0,0.1,0.1,0.1,0.1,0.2
			c-0.1,0-0.2,0-0.3,0c-0.5-0.1-1-0.4-1.4-0.1c0,0.1,0,0.2-0.1,0.3c0,0.1,0,0.2-0.1,0.3c0.3,0.1,0.5,0.3,0.8,0.5
			c0.2-0.3,0.5-0.4,0.8-0.5c0.2,0.1,0.5,0.1,0.7,0.2c0.4,0.4,0.2,0.9,0.2,1.4c0.3,0.2,0.7,0.3,1.1,0.5c-0.2,0.1-0.4,0.2-0.6,0.3
			l-0.6-0.1c-0.1,0-0.2,0-0.2-0.1c-0.2,0.2-0.4,0.5-0.5,0.7h8.3c-0.1-0.2-0.2-0.4-0.4-0.7c-0.2-0.4-0.1-0.9-0.1-1.2l0.8-1.2
			c0.4,0,0.9-0.2,1.4-0.1c0,0,0,0,0.1,0c0.2-0.1,0.2-0.4,0.5-0.4c0.5-0.1,0.9,0.1,1.3,0.3c0,0,0,0.1,0,0.1c-0.2,0.3-0.5,0-0.7,0
			c-0.1,0.1,0,0.2,0.1,0.3c0.1,0.1-0.1,0.1-0.1,0.1c-0.1,0-0.3,0-0.4-0.1c0,0,0-0.1-0.1-0.1c-0.1,0.2-0.3,0.3-0.3,0.5
			c0.1,0.1,0.3,0.3,0.4,0.4c0.1,0.2-0.1,0.3-0.2,0.5c0,0-0.1,0-0.1,0c-0.1-0.1-0.2-0.3-0.4-0.2c-0.1,0.5,0,1.1,0,1.6
			c0.2,0.1,0.5,0,0.8,0l0.1-1.1c0.1-0.7,0.5-1.4,1.1-1.9c0.6-0.4,0.9,0.4,1.3,0.6c0.1,0,0,0.1,0.1,0.1c0,0.1-0.1,0.2-0.2,0.2
			c-0.3,0.1-0.4-0.2-0.6-0.4c-0.2,0.2-0.2,0.4-0.4,0.5l0.1,0c0.2,0.2,0.4,0.4,0.4,0.7c0,0.2-0.1,0.5-0.4,0.6
			c-0.2-0.3-0.3-0.6-0.4-0.9c0,0,0,0,0,0c-0.3,0.1-0.4,0.5-0.5,0.8c0,0.3-0.2,0.4-0.1,0.7h4.3c0.5-0.1,1-0.1,1.4-0.4
			c1.6,0.2,3.2-0.2,4.5-1c0.7-0.5,1.3-1.2,1.8-1.8c0.4-0.6,0.8-1.2,1-1.8c0.2-0.4,0.3-0.8,0.4-1.3C113.5,42.3,113.2,39.9,112.6,37.9
			L112.6,37.9z"/>
            <path class="st2" d="M84.9,49.1c0.2-0.2,0.6-0.2,0.7-0.5c-0.1-0.1-0.2-0.2-0.3-0.2L85,48.5c0-0.1,0.1-0.3,0.1-0.5l0.8-0.3
			c-0.1,0.4-0.2,0.8-0.2,1.2c0.1,0.6,0.2,1.3,0.5,1.8h-0.9C85.3,50.2,84.7,49.8,84.9,49.1L84.9,49.1z M86.7,48.4L86.7,48.4l0.6,0.5
			l0.1,0c0,0.6-0.1,1.2-0.1,1.9h-0.6c-0.1-0.6-0.3-1.2-0.3-1.9C86.5,48.7,86.6,48.5,86.7,48.4z M88,49c0.1-0.2,0.2-0.4,0.4-0.4
			c0.2,0,0.3,0,0.4,0.1c0.2,0.3,0,0.6-0.1,0.9c-0.1,0.4-0.2,0.8-0.4,1.2h-0.6L88,49L88,49z M97.2,48.8c0.1,0.2,0.2,0.4,0.4,0.5
			c0.2-0.2,0.2-0.6,0.1-0.9l-0.2-0.2c0.2-0.1,0.5-0.1,0.7-0.1c-0.1,0.3-0.3,0.6-0.2,1c0,0.5,0.1,1.1,0.1,1.7h-0.7
			c-0.2-0.5-0.5-1-0.5-1.7C97,49,97.1,48.9,97.2,48.8L97.2,48.8z"/>
            <path class="st1" d="M100,37.2c0,0.2-0.1,0.3,0,0.5c0.1-0.2,0.4-0.2,0.6-0.2c0.5,0,1,0.1,1.5,0.2c-0.1-0.2-0.2-0.4-0.3-0.6
			c-0.3-0.1-0.7,0.1-0.7-0.3c-0.2-0.1-0.4,0-0.6,0C100.3,36.9,100.1,37,100,37.2L100,37.2z M81.6,32C81.6,32,81.6,32,81.6,32
			L81.6,32L81.6,32z M83.8,37.4l0.4-0.3c0,0,0.1,0,0.1,0l0,0.7c0.2,0.2,0.4,0.2,0.6,0.2c0-0.2,0.2-0.3,0.2-0.5
			c0.1-0.1,0-0.3,0.2-0.4l0,0c0,0.2,0,0.4,0.1,0.6c0,0.1,0,0.2,0,0.3c0.2,0,0.5,0,0.7-0.2c0-0.2,0.1-0.4,0.1-0.6
			c0.1-0.1-0.1-0.2,0.1-0.2c0.1,0.2,0.2,0.4,0.3,0.6c0.3-0.4,0.5-0.8,0.6-1.3c-0.1-0.1-0.3-0.1-0.4-0.2c-1-0.3-2.3-0.4-3.3,0.1
			C83.4,36.6,83.5,37,83.8,37.4L83.8,37.4z M74.2,48.7c0,0.5,0,0.9,0,1.4c0.1,0.2,0.3,0.3,0.4,0.3l0-0.3c0.1-0.4-0.2-0.9,0.1-1.2
			c0.2,0.1,0.3,0.1,0.5,0.2c0.1-0.4,0-0.9-0.4-1.1L74.2,48.7L74.2,48.7z M75.7,48c-0.2,0.7-0.4,1.6-0.1,2.3c0.2-0.1,0.3-0.2,0.5-0.4
			c0-0.6-0.1-1.2,0.2-1.6c0.3,0.1,0.5,0.4,0.6,0.7c0.2-0.3,0.3-0.6,0.2-0.9c0-0.3-0.3-0.2-0.4-0.3c0-0.2,0-0.5,0.3-0.6l-0.7,0.1
			C76,47.5,75.8,47.7,75.7,48z M77.2,50.1c0,0.1,0,0.2,0.1,0.2c0.1-0.5,0.5-0.8,0.7-1.3c0.1-0.1,0.1-0.4,0.3-0.5
			c0.2,0,0.4,0.2,0.6,0.2c0.1,0.1,0,0.1,0,0.2c0,0.4-0.2,0.8-0.2,1.2h0c0.3-0.3,0.5-0.7,0.8-1.1l0-0.3c0.1-0.4-0.4-0.7-0.7-0.8
			l0.3-0.3l-0.4-0.1c-0.4,0-0.8,0.2-1.1,0.6C77.3,48.5,77.2,49.3,77.2,50.1L77.2,50.1z M78.8,46.5c0.1,0,0.3-0.1,0.4,0
			c0.6,0.2,1.1,0.4,1.6,0.9l0.5,1.3l0.2-0.8l-0.2-0.4c-0.1-0.3-0.5-0.3-0.8-0.3c-0.1-0.1,0-0.3,0-0.4c0.1-0.4-0.4-0.4-0.6-0.6
			c0-0.3-0.3-0.2-0.5-0.2l-0.1-0.1c0-0.1-0.1-0.1-0.2,0c0,0,0,0,0-0.1l-0.1,0C78.9,46.1,78.8,46.3,78.8,46.5L78.8,46.5z M79.2,45.1
			c0,0.1,0.1,0.2,0.1,0.2c0.3-0.1,0.5-0.3,0.8-0.1c0.4,0.4,0.8,0.7,1.3,0.9l0.2,0c0.1,0,0.2,0,0.3,0.2c0.1,0.2-0.1,0.3-0.2,0.4
			c0.3,0.2,0.2,0.6,0.3,0.8l0.4-0.6c-0.1-0.3,0-0.7-0.4-0.7c-0.1-0.1-0.2-0.2-0.2-0.3c-0.3-0.2-0.6-0.3-0.8-0.6
			c-0.2-0.2-0.3-0.4-0.6-0.5c-0.2-0.1-0.4-0.2-0.6-0.2C79.5,44.5,79.4,45,79.2,45.1L79.2,45.1z M79.7,44l0.1,0.1
			c0.3,0,0.6-0.2,0.9-0.1c0.2,0.1,0.5,0.1,0.7,0.2c0.2,0.2,0.3,0.5,0.6,0.6c0.5,0.1,0.8,0.6,0.9,1v-0.2c0.1-0.3,0-0.6-0.1-0.8
			c-0.1-0.1-0.3-0.2-0.4-0.3c0-0.1,0-0.1,0-0.2c-0.2-0.2-0.5-0.3-0.7-0.5c-0.3-0.5-0.9-0.3-1.4-0.5L79.7,44L79.7,44z M79.7,39.5
			c0.1,0.2,0.1,0.4,0.2,0.6c0.2-0.4,0.5-0.5,0.8-0.8c-0.2-0.1-0.4-0.2-0.6-0.2v0C80,39.2,79.8,39.3,79.7,39.5z M80.8,41.5l0.3-0.3
			c0.3-0.3,0.5-0.6,0.5-1c-0.2-0.1-0.4,0-0.6,0C80.9,40.7,80.8,41.1,80.8,41.5L80.8,41.5z M81,42.4c0.4,0,0.8,0.1,1.2-0.1l0.3-1.1
			c-0.1,0-0.2-0.1-0.3,0C82,41.6,81.5,42.1,81,42.4L81,42.4z M81.1,38.5c0.3,0.4,0.7,0.8,1.2,1c-0.1-0.5-0.5-0.9-0.7-1.3l0-0.1
			c-0.2-0.2-0.4-0.3-0.6-0.4C81,38,81.1,38.2,81.1,38.5z M82.6,42.4c0.3,0.1,0.7,0,1-0.1c0.4-0.1,0.7-0.6,0.8-0.9h-0.5l-0.6,0.6
			C83,42.1,82.8,42.2,82.6,42.4z M82.5,38c0.1,0.5,0.3,0.9,0.6,1.3l0.1-0.9L82.5,38L82.5,38z M84.5,40.3c0-0.3-0.1-0.7-0.1-1
			c-0.2-0.1-0.4-0.1-0.6-0.2C83.8,39.6,84.2,40,84.5,40.3L84.5,40.3z M84,43.4c0.4-0.1,0.7-0.3,1.1-0.4c0.2-0.3,0.6-0.6,0.6-1
			c-0.3,0.1-0.5,0-0.8,0.1c-0.2,0.3-0.3,0.6-0.6,0.8C84.3,43.1,84.1,43.2,84,43.4z M84.6,44.1l0.5,0.6c0.2,0.1,0.5,0.1,0.8-0.1
			l-0.2-0.5C85.3,44.2,84.9,44.2,84.6,44.1z M85.3,39.8l0.2,0.8c0.4-0.3,0.5-0.8,0.5-1.4C85.7,39.5,85.6,39.7,85.3,39.8L85.3,39.8z
			 M86.5,41.3c0,0.1,0,0.2,0.1,0.3c0.5,0.2,0.5,0.7,1,1c0.3,0.1,0.6,0,0.9-0.1c-0.2-0.2-0.4-0.4-0.6-0.6c-0.1-0.1-0.3-0.1-0.2-0.3
			L86.5,41.3L86.5,41.3z M86.9,44.1c0.2,0.2,0.5,0.4,0.8,0.4c0-0.1,0,0,0,0l-0.4-0.8c-0.2,0-0.4,0-0.5,0
			C86.8,43.8,86.8,44,86.9,44.1z M87.5,40.4c-0.2-0.4-0.2-0.9-0.3-1.3c-0.2,0.2-0.4,0.4-0.5,0.6C86.6,40.1,87.3,40.2,87.5,40.4z
			 M88.3,40c0.2,0.3,0.7,0.2,1,0.1c-0.1-0.2-0.5-0.3-0.6-0.6c0-0.4-0.1-0.8-0.3-1.2C88.1,38.8,87.9,39.4,88.3,40z M88.6,41.3
			c0.6,0.4,1.2,1,2,0.8c0.1,0,0.2,0,0.2-0.1c-0.2-0.2-0.5-0.3-0.8-0.4l-0.3-0.4h-0.1C89.3,41.2,89,41.2,88.6,41.3z M88.6,46.1
			L88.6,46.1c0.4-0.3,0.8-0.4,1.3-0.5c0.1,0,0,0.2,0.1,0.2c0.3-0.1,0.6-0.1,0.8-0.2c0.3,0,0.6,0,0.8,0.2c0.2,0.3,0.6,0.2,0.9,0.4
			l0-0.4c-0.6-0.7-1.4-0.7-2.2-0.7l0-0.1c-0.2,0-0.4,0-0.6,0.1c-0.3,0-0.5,0.1-0.8,0.2C88.8,45.6,88.7,45.9,88.6,46.1z M89.1,38.7
			c0.2,0.3,0.6,0.5,1,0.5c-0.2-0.2-0.4-0.4-0.5-0.7c0.1-0.5-0.5-0.6-0.8-0.9C88.9,38,88.9,38.4,89.1,38.7z M89.1,47.2L89.1,47.2
			c0.4-0.2,0.9,0,1.2-0.3c0.2-0.1,0.2,0.2,0.3,0.2c0.3,0.2,0.3,0.7,0.7,0.6c0.5,0.3,0.4,0.9,0.4,1.3l0.5-0.3c0-0.2,0.1-0.5-0.1-0.7
			c-0.1-0.3-0.4-0.3-0.6-0.5c0.2-0.3-0.2-0.5-0.3-0.7l0,0l0.6,0.1c0.2,0.1,0.3,0.4,0.4,0.6c0.5,0.1,0.6,0.7,0.8,1
			c0.1-0.2,0.1-0.5,0.2-0.8c0-0.2-0.3-0.2-0.4-0.3c0-0.3-0.2-0.6-0.4-0.8c-0.6-0.1-1-0.4-1.7-0.4l-0.5,0.2c-0.3,0.1-0.6,0-0.8,0.2
			C89.2,46.6,89.1,47,89.1,47.2L89.1,47.2z M89.4,44.7l0.1,0.1c0.2-0.1,0.5-0.2,0.8-0.3c0.4-0.1,0.7,0.3,1.1,0.1
			c0.1-0.1,0.2,0,0.3,0.1c0.1,0.3,0.5,0.2,0.7,0.3c-0.1-0.3-0.3-0.8-0.7-0.9c-0.2-0.1-0.4-0.1-0.5-0.2c-0.5-0.5-0.8,0.4-1.3,0.2
			C89.7,44.3,89.4,44.5,89.4,44.7z"/>
            <path class="st1" d="M89.5,47.7c0.2,0.2,0.4,0.4,0.7,0.4c0.4,0.2,0.2,0.7,0.4,0.9l0.2-0.2l0,0l0,0l0,0c0.1-0.2,0-0.5-0.1-0.7
			c-0.1-0.1-0.3,0-0.4-0.1c0-0.2-0.1-0.3-0.3-0.4c-0.1-0.1-0.2,0-0.3,0L89.5,47.7L89.5,47.7z M90.3,40.3c0.2,0.3,0.6,0.5,0.9,0.8
			c0.3,0.1,0.6,0.1,0.9,0.1c-0.3-0.2-0.5-0.4-0.7-0.7c-0.1-0.1-0.1-0.3-0.2-0.4C90.8,40.1,90.5,40.1,90.3,40.3z M90.6,38.2
			c0.3,0.3,0.7,0.2,1.1,0.2v0l-0.6-0.5C90.9,37.9,90.7,38,90.6,38.2L90.6,38.2z M79.5,32.5l0.3,1.1c0-0.6,0.3-1.1,0.2-1.8l0.3-0.4
			l-0.5,0.2C79.6,31.9,79.5,32.1,79.5,32.5z M79.7,30.6l0.5-0.3v-0.7c-0.2,0.1-0.3,0.3-0.5,0.5L79.7,30.6z"/>
            <path class="st1" d="M89.5,31.7c-0.1,0.2-0.3,0.2-0.4,0.2c0.3-0.5,0.4-1.1,0.2-1.6c0.1,0,0.3-0.1,0.4-0.1l0,0l0.3-0.3
			c0.4-0.3,0.3-0.9,0.4-1.3c-0.2-0.3-0.3-0.7-0.6-1l0,0c-0.2-0.3-0.7-0.3-1-0.4c-0.4-0.2-0.8,0.2-1.1,0.4c-0.1,0-0.1,0.2-0.2,0.2
			c-0.1,0.2-0.2,0.5-0.2,0.7c-0.6-0.1-1.2,0-1.7,0.3c-0.3-0.2-0.6-0.2-0.9-0.3c-0.2,0-0.5,0-0.6-0.1c-0.2-0.3-0.3-0.7-0.7-0.8
			c-0.1,0-0.2-0.2-0.2-0.3c-0.3,0-0.5-0.2-0.7-0.2c-0.4-0.2-0.7,0.1-1,0.3c-0.1,0.1-0.3,0.1-0.4,0.1c-0.2,0.3-0.4,0.7-0.6,1.1
			c0,0.3,0.2,0.6,0.3,0.8c0.1,0.4,0.6,0.7,0.9,0.9c-0.2,0.6-0.2,1.3,0,1.9c0,0,0,0,0,0c0,0,0,0,0,0c-0.1,0-0.1,0-0.2,0h0
			c0.1,0.6,0.4,1.1,0.8,1.5c0.2,0.1,0.1,0.2,0.2,0.4c0,0.1,0,0.2,0,0.2c-0.9,0-1.8,0.2-2.5,0.6c-0.2,0.1-0.1,0.4-0.1,0.5
			c0.5-0.4,1.1-0.6,1.7-0.7c0.3,0,0.6-0.1,0.8,0l0,0.5c-0.7,0.4-1.5,0.6-2.1,1.2c0,0.2,0,0.4,0,0.6l0.5-0.4c0.5-0.4,1.1-0.7,1.7-1
			c0.2,0.2,0.3,0.4,0.6,0.5c0.4-0.2,0.8-0.4,1.2-0.5c0.2-0.1,0.6,0,0.7-0.3l0.1-0.5c0,0,0,0-0.1,0c-0.3-0.2-0.5-0.4-0.4-0.8
			c-0.1,0.1-0.2,0.1-0.3,0.1c-0.1,0-0.2,0-0.2-0.1c0-0.1-0.1-0.3,0.1-0.4c0.4-0.2,0.9-0.3,1.4-0.2c0.4,0,0.9,0,1,0.5
			c0,0.1,0,0.3-0.1,0.4c-0.1,0.1-0.3,0-0.4-0.1c-0.1,0.3-0.3,0.6-0.6,0.7l0,0.3c0,0.2,0.1,0.4,0.3,0.4c0.6,0.1,1.1,0.4,1.6,0.8
			c0.2-0.2,0.3-0.4,0.4-0.5c0.9,0.3,1.7,1,2.4,1.6l0-0.5c-0.7-0.6-1.5-1.1-2.3-1.4c0-0.2,0.1-0.3,0.1-0.5c1,0.1,1.9,0.4,2.7,0.8
			l0-0.4c-0.8-0.4-1.7-0.7-2.7-0.8c0-0.1,0-0.1,0-0.2c0.5-0.1,0.8-0.6,0.9-1c0.2-0.3,0.6-0.6,0.5-1c0,0,0-0.1,0-0.1
			C89.5,31.9,89.5,31.8,89.5,31.7L89.5,31.7z"/>
            <path class="st1" d="M90.3,33.2l0.5-0.2l0.1-0.3c0.1-0.4-0.2-0.7-0.3-1L90.3,33.2L90.3,33.2z M91.6,35.1c0.2,0.3,0.5,0.7,0.9,0.5
			c0-0.2-0.1-0.3-0.2-0.5c-0.1-0.1-0.1-0.5-0.4-0.4c-0.2-0.1-0.2-0.3-0.3-0.4C91.6,34.6,91.6,34.9,91.6,35.1L91.6,35.1z M91.7,36.9
			c0.1,0.1,0.1,0.3,0.2,0.4c0.2,0.1,0.4,0.1,0.6,0.1c0.2,0,0.3,0.2,0.5,0c-0.2-0.1-0.3-0.4-0.5-0.5C92.2,36.7,91.9,36.9,91.7,36.9
			L91.7,36.9z M92,39.7c0.4,0.2,0.9,0.5,1.5,0.4c0.1,0,0.2,0,0.2-0.1c-0.3-0.1-0.7-0.5-1.1-0.5c-0.2-0.3-0.5,0.1-0.7,0.1
			C91.9,39.6,92,39.7,92,39.7L92,39.7z M93.2,45l0.1,0.2c0.1,0.6,0.5,1.2,0.3,1.9c0.2,0.1,0.2,0.3,0.3,0.5h0c0.1-0.5,0-1.1,0-1.6
			C94,45.6,93.5,45.3,93.2,45L93.2,45z M93.3,38.9c0.3,0.2,0.8,0.3,1.2,0.1c-0.2-0.1-0.5-0.3-0.7-0.4L93.3,38.9L93.3,38.9z
			 M94.8,40.7c0,0.3,0.1,0.5,0.3,0.6c0.1-0.2,0.2-0.3,0.2-0.4c-0.1-0.3-0.2-0.5-0.4-0.7C94.9,40.4,94.8,40.5,94.8,40.7L94.8,40.7z
			 M94.9,43.5c0,0.3,0.3,0.3,0.4,0.5c0.1,0.1-0.1,0.2-0.1,0.3c0.2,0.3,0.4,0.6,0.4,1c0.1-0.4,0.2-0.7,0.3-1.1c0-0.3-0.4-0.2-0.4-0.5
			c0.1-0.3,0-0.6-0.1-0.9c0,0-0.1-0.1-0.1-0.1C95.1,43,94.8,43.2,94.9,43.5L94.9,43.5z M95.7,42l0.3,0.6c0.1,0,0.2-0.2,0.3-0.2
			c0.1-0.3-0.1-0.4-0.2-0.6c-0.1-0.1,0-0.3-0.1-0.5c-0.1,0-0.2-0.1-0.3-0.1L95.7,42L95.7,42z M96.1,40.4c0.2,0.2,0.5,0.4,0.7,0.6
			c0.2,0.6,0.5,1.2,0.8,1.8c0.1,0.4,0.2,0.8,0.3,1.2c0,0.1,0,0.3,0.2,0.3c0-0.5,0.1-0.9,0.1-1.4c-0.2-0.2-0.3-0.3-0.5-0.4v0
			c0-0.1,0.1-0.2,0.2-0.2c0.1-0.1,0.2-0.1,0.1-0.2c-0.3-0.3-0.3-0.9-0.8-1C97,41,97,40.9,97,40.7C96.7,40.5,96.4,40.4,96.1,40.4
			L96.1,40.4z M96.4,43.7c0.3,0.3,0.2,0.7,0.2,1.1c0,0.2,0.2,0.1,0.3,0.2c0.2,0.3,0.1,0.7,0,1c0.2-0.2,0.3-0.5,0.5-0.7
			c0-0.1,0.1-0.2,0.1-0.3c0.1-0.2-0.1-0.1-0.2-0.1c-0.1,0-0.2-0.1-0.1-0.2c0.2-0.3,0-0.7,0-1c-0.1-0.2,0-0.6-0.1-0.8
			C96.8,43.2,96.2,43.2,96.4,43.7L96.4,43.7z M96.9,39.4c0.5,0.5,0.9,1.1,1.5,1.6c0-0.2,0-0.5,0-0.7c-0.1-0.2-0.2-0.3-0.4-0.4
			C97.6,39.9,97.4,39.3,96.9,39.4z M98.3,42.3c0,0.1,0,0.1,0.1,0.2c0.2,0.4,0.5,0.8,0.6,1.2c0-0.4,0.3-1-0.1-1.3
			c-0.1-0.1-0.2-0.1-0.3-0.1L98.3,42.3L98.3,42.3z M99.8,46.7c0.2,0.1,0.4-0.1,0.5-0.2c0.2,0,0.3,0,0.4,0.1c0,0.1,0,0.2,0,0.3
			c0.4,0.1,0.7,0.2,1,0.4l0.1-0.1c0-0.3-0.2-0.4-0.4-0.6c-0.1-0.1-0.3,0-0.4-0.1c0.1-0.1,0.1-0.2,0.1-0.3c-0.2,0-0.3-0.1-0.5-0.2
			c-0.1,0-0.2-0.1-0.3,0C100.1,46.2,100.1,46.5,99.8,46.7L99.8,46.7z M100.2,39.1c0.2,0,0.3-0.1,0.4-0.2c0.4-0.4,1-0.1,1.5-0.1
			c-0.1-0.2-0.2-0.3-0.3-0.5c-0.2-0.1-0.3-0.1-0.5-0.1c-0.4-0.2-0.7,0.2-1,0.4C100.2,38.7,100.1,38.9,100.2,39.1L100.2,39.1z
			 M100.2,40.3C100.2,40.3,100.2,40.3,100.2,40.3c0.1,0,0,0.1,0.1,0.1c0.2-0.1,0.3-0.2,0.4-0.3c0.4,0,0.6-0.4,1-0.4
			c0.7,0.1,1.3,0.3,1.9,0.6c0-0.4-0.4-0.7-0.7-0.9c-0.2-0.1-0.3,0-0.5,0.1c-0.4,0.3-0.2-0.4-0.5-0.4c-0.4,0.1-0.7,0.2-1.2,0.2
			c-0.2,0.1-0.4,0.3-0.7,0.3C100.2,39.9,100.2,40.2,100.2,40.3z M100.5,41.7c0.1,0.1,0.3,0.1,0.5,0.1l0.5-0.2c0-0.1-0.2-0.1-0.1-0.2
			c0.1-0.2,0.3,0,0.5-0.1c0.3,0,0.5-0.3,0.8-0.1c0,0,0,0.1,0,0.1c-0.1,0.2,0.1,0.3,0.2,0.4c0.3,0.1,0.6,0.3,0.9,0.2
			c0-0.2-0.1-0.5-0.2-0.7c-0.2,0-0.4-0.2-0.7-0.3c-0.1,0.1-0.2,0.2-0.4,0.2c-0.5-0.1-1-0.4-1.5-0.1c-0.2,0.2-0.5,0.1-0.7,0.2
			C100.4,41.3,100.4,41.5,100.5,41.7L100.5,41.7z M100.7,45.3c0,0.1-0.1,0.3,0,0.3c0.4,0,0.9-0.2,1.2,0.1c0.1,0.1,0.1,0.2,0,0.3
			l0.5,0.4c0-0.3,0.1-0.5,0.1-0.8c0-0.2-0.1-0.4-0.3-0.5c-0.3,0-0.5-0.4-0.9-0.3c-0.2,0-0.3,0.1-0.5,0.1
			C100.8,45.1,100.8,45.2,100.7,45.3L100.7,45.3z M100.8,42.4c0.1,0.2,0.2,0.4,0.3,0.4c0.4-0.2,0.9-0.3,1.3-0.1
			c0.1,0,0.1,0.2,0.1,0.3c0.2,0.1,0.5,0.2,0.7,0.3l-0.1-0.4c0-0.4-0.5-0.4-0.5-0.8c-0.4-0.1-0.9-0.2-1.3-0.1
			c-0.1,0.1-0.3,0.1-0.5,0.1C100.8,42.4,100.8,42.4,100.8,42.4L100.8,42.4z M100.9,44.4c0.2-0.1,0.4-0.3,0.6-0.3
			c0.4,0,0.7,0.2,1,0.5c0.1,0.1,0.1,0.3,0.3,0.3c-0.1-0.3,0-0.6,0-0.9c-0.3-0.4-0.9-0.1-1.1-0.6l-0.4,0c-0.3,0.1-0.2,0.5-0.3,0.7
			C101,44.2,100.9,44.3,100.9,44.4L100.9,44.4z M103.2,47c0.2,0.4,0.6,0.7,0.6,1.1c0.1-0.1,0.2-0.2,0.2-0.4c0-0.1-0.1-0.1-0.2-0.2
			c-0.1-0.2,0-0.3,0.1-0.4c-0.1-0.2-0.3-0.4-0.5-0.6L103.2,47L103.2,47z M103.9,46.1l0.4,0.6c0.2-0.3,0.2-0.7,0.1-1.1
			c0-0.1-0.1-0.2-0.2-0.1C104.1,45.6,104,45.9,103.9,46.1L103.9,46.1z M102.1,29.6c0.2,0.1,0.3,0.2,0.5,0.2c0.1-0.1,0.3-0.1,0.4-0.1
			c0.2,0.1,0.5,0,0.8,0c-0.2-0.2-0.5-0.4-0.8-0.5C102.7,29.2,102.5,29.5,102.1,29.6z M104.5,30.1c0.3,0,0.6,0.3,0.8,0.5
			c0.3,0,0.5,0.2,0.6,0.4l-0.1-0.3c-0.1-0.3-0.3-0.6-0.5-0.8C105,30,104.7,30,104.5,30.1L104.5,30.1z"/>
            <path class="st2" d="M82,27.5l0.2,0c0.5,0.2,1.2,0.4,1.3,1c-0.5,0.2-0.9,0.4-1.3,0.8c-0.3-0.3-0.9-0.1-1-0.7
			C81.2,28.2,81.4,27.6,82,27.5L82,27.5z M82.4,30.5c0.5,0,1.1,0,1.6,0c0.1,0.1,0.3,0.2,0.3,0.3c0,0.7-0.2,1.3-0.2,1.9
			c-0.2,0.1-0.5,0.3-0.6,0.6c-0.2,0.1-0.4,0.2-0.6,0.3c-0.1-0.2-0.1-0.5,0.1-0.7c0.2-0.3,0.8-0.3,0.8-0.8c0.2-0.3,0-0.6,0-0.8
			c-0.1-0.2-0.1,0.1-0.2,0.1c-0.2,0-0.4,0.1-0.6,0c-0.1-0.1-0.3-0.2-0.3-0.4C82.6,30.9,82.4,30.7,82.4,30.5L82.4,30.5L82.4,30.5z
			 M83.1,34.5c0.3,0,0.5-0.1,0.8,0c0,0.1-0.2,0.1-0.3,0.1l-0.4,0.2C83,34.8,83.1,34.6,83.1,34.5z M84.2,29.4
			c0.3-0.1,0.5-0.3,0.8-0.2c-0.2,0.2-0.4,0.5-0.5,0.7l-0.8,0C83.7,29.7,84,29.5,84.2,29.4L84.2,29.4z M86.6,29.2
			c0.3-0.1,0.3,0.4,0.6,0.4c0.1,0.1,0.1,0.1,0.1,0.2c-0.2,0.1-0.4,0-0.7,0.1c-0.3-0.2-0.1-0.6-0.5-0.6c0,0-0.1-0.1,0-0.1
			C86.3,29.2,86.4,29.2,86.6,29.2L86.6,29.2z M86.4,30.9c0.2-0.2,0.4-0.2,0.6-0.3l1.6,0c0.1,0.1-0.1,0.1-0.1,0.2
			c-0.1,0.1-0.2,0.1-0.3,0.2c-0.2,0-0.2,0.2-0.3,0.4c-0.2,0.2-0.5,0.1-0.8,0.1c-0.1-0.1-0.2-0.2-0.2-0.3l-0.1,0.1
			c0.1,0.3,0.1,0.7,0.1,1.1l0.4,0.2c0,0.6,0.7,0.4,0.9,0.7c-0.1,0.2-0.2,0.4-0.3,0.5c-0.2-0.2-0.5-0.4-0.8-0.5
			c0-0.3-0.4-0.5-0.6-0.7C86.4,32.1,86.4,31.5,86.4,30.9L86.4,30.9L86.4,30.9z M86.9,34.6h0.7L87.6,35L86.9,34.6
			C86.8,34.6,86.9,34.6,86.9,34.6z M88.2,27.7l0.5-0.2c0.3,0.1,0.6,0.3,0.9,0.5c0.2,0.4,0.2,1,0.1,1.4c-0.2,0.2-0.5,0-0.7,0.3h0
			c-0.2-0.6-0.8-1.1-1.3-1.3C87.8,28.2,87.9,27.9,88.2,27.7L88.2,27.7z"/>
	</g>
</g>
    <g id="Laag_4">
</g>
</svg>
