<?xml version="1.0" encoding="utf-8"?>
<!-- Generator: Adobe Illustrator 22.1.0, SVG Export Plug-In . SVG Version: 6.00 Build 0)  -->
<svg version="1.1" xmlns="http://www.w3.org/2000/svg" xmlns:xlink="http://www.w3.org/1999/xlink" x="0px" y="0px"
     width="125.4px"
     height="78.4px" viewBox="0 0 125.4 78.4" style="enable-background:new 0 0 125.4 78.4;" xml:space="preserve">
<style type="text/css">
	.st0{fill:#009EE2;}
	.st1{fill:#003865;}
</style>
    <g id="Layer_1">
	<title>Tekengebied 4</title>
</g>
    <g id="Laag_2">
</g>
    <g id="Laag_3">
	<g>

			<ellipse transform="matrix(0.9998 -1.854910e-02 1.854910e-02 0.9998 -0.4422 1.1913)" class="st0" cx="64"
                     cy="24.4" rx="10.5" ry="10.5"/>
        <path class="st0" d="M71.8,33c-2,2.2-5.6,4.4-10.1,4.4c-3.5,0-6.6-1.4-8.5-2.9c-11.5,1.2-20.1,2.9-20.1,2.9V42l61.1,0v-9.6
			C94.2,32.4,83.7,32.3,71.8,33z"/>
	</g>
        <g>
		<path class="st1" d="M40.4,55.6v5.7h-7.3V46.2h7.3V53h0l4.3-6.8h8.7L47,54l6,7.3h-8.3L40.4,55.6L40.4,55.6z"/>
            <path class="st1" d="M94.2,60.7c-1.7,0.5-4,0.8-6,0.8c-7.2,0-12.4-2-12.4-8c0-5.4,5.1-7.7,12.1-7.7c1.9,0,4.4,0.2,6.3,0.8l0,5.2
			c-1.4-0.9-2.9-1.4-4.9-1.4c-2.7,0-5.3,1.3-5.3,3.2c0,1.9,2.6,3.2,5.3,3.2c2,0,3.5-0.6,4.9-1.4L94.2,60.7z"/>
            <path class="st1" d="M54.6,46.2h14.7c3.8,0,5.1,1.5,5.1,3.8c0,2.6-2.3,3.7-4.7,3.8v0c2.4,0.2,4.8,0.5,4.8,3.5c0,2-1.2,3.9-5.4,3.9
			H54.6V46.2z M61.8,58.2h3.8c1.4,0,1.9-0.6,1.9-1.5c0-0.9-0.5-1.5-1.9-1.5h-3.8L61.8,58.2z M61.8,52.6h3.6c1.4,0,1.9-0.6,1.9-1.4
			c0-1-0.6-1.5-1.8-1.5h-3.7L61.8,52.6z"/>
	</g>
</g>
    <g id="Laag_4">
</g>
</svg>
