<?xml version="1.0" encoding="utf-8"?>
<!-- Generator: Adobe Illustrator 22.1.0, SVG Export Plug-In . SVG Version: 6.00 Build 0)  -->
<svg version="1.1" id="Layer_1" xmlns="http://www.w3.org/2000/svg" xmlns:xlink="http://www.w3.org/1999/xlink" x="0px"
     y="0px"
     viewBox="0 0 125.4 78.4" style="enable-background:new 0 0 125.4 78.4;" xml:space="preserve">
<style type="text/css">
	.st0{fill:#EE7F00;}
</style>
    <title>Tekengebied 14</title>
    <path id="path66" class="st0" d="M44.2,28c-1.5,0-3,0.3-4.4,1c-2.1,1.1-3.9,2.6-5.3,4.6c-1,1.4-1.8,3-2.4,4.7c-1.2,3.3-1.2,6,0,7.8
	c0.7,1,2.2,2.2,5.1,2.2l0,0c5.4,0,9.4-3.5,12-10.5c0.7-1.8,1.6-5.3-0.1-7.6C48.2,28.7,46.5,28,44.2,28L44.2,28z M76.7,28
	c-1.5,0-3,0.3-4.4,1c-2.1,1.1-4,2.7-5.3,4.6c-1,1.4-1.8,3-2.4,4.7c-1.2,3.3-1.2,6,0,7.8c0.7,1,2.2,2.2,5.1,2.2l0,0
	c5.4,0,9.4-3.5,12-10.5c0.7-1.8,1.6-5.3-0.1-7.6C80.7,28.7,79,28,76.7,28z M26.9,28.3c-1.7-0.1-3.4,0.1-5,0.8
	c-1.5,0.8-2.9,2.3-4,5.5c-0.2,0.6-0.3,1.2-0.4,1.8c0,0.4,0.1,0.9,0.3,1.3c0.3,0.5,0.6,0.9,1.1,1.2c0.5,0.4,1.1,0.7,1.7,0.8l0.7,0.2
	l1.1,0.3c0.2,0.1,0.4,0.1,0.5,0.2c0.3,0.2,0.5,0.5,0.5,0.8c0,0.2,0,0.3-0.1,0.5c-0.1,0.4-0.4,0.7-0.8,0.9c-0.6,0.2-1.3,0.3-2,0.2
	H9.1l-1.8,5h12.4c1.8,0.1,3.6-0.2,5.4-0.8c2.5-1.1,4.3-3.4,4.8-6c0.3-1.1,0.2-2.2-0.3-3.2c-0.7-0.9-1.7-1.6-2.8-1.8l-0.7-0.2l-1-0.3
	c-0.3-0.1-0.6-0.3-0.8-0.5c-0.2-0.3-0.2-0.6-0.1-0.9c0.1-0.3,0.3-0.6,0.6-0.8c0.4-0.2,0.8-0.3,1.3-0.3h7.2l0.1-0.2
	c1.2-1.8,2.8-3.3,4.7-4.4L26.9,28.3z M59.2,28.3c-3-0.1-5.8,1.8-6.7,4.7l-5.4,15h6l2.8-7.7h5.3l1.5-4.1h-5.3l0.8-2.4
	c0.2-0.5,0.7-0.8,1.2-0.8h6.2l0.2-0.2c1.3-1.8,3-3.3,4.9-4.4L59.2,28.3z M86.9,28.3l-7.2,19.7h6.1l2.6-6.9c0.1,0.3,1.7,6.9,1.7,6.9
	h6.4c-0.5-2.3-1.2-4.6-2-6.8c-0.2-0.5-0.5-1.1-0.8-1.5c2.5-0.8,4.5-2.6,5.5-5c0.7-1.8,0.6-3.2-0.1-4.3c-0.9-1.3-2.7-1.9-5.6-1.9
	L86.9,28.3z M99.4,28.3c0.4,0.3,0.7,0.6,1,1c0.7,1.1,1,2.3,0.8,3.6h3.6l-5.4,15h5.4l5.4-15h7l1.7-4.7L99.4,28.3z M90.9,32.3h1
	c1.8,0,2.5,0.5,1.9,2.2c-0.5,1.6-2,2.7-3.6,2.5h-1L90.9,32.3L90.9,32.3z M42.8,32.4L42.8,32.4c1.9,0,2.3,1.1,0.7,5.6l0,0
	c-1.7,4.6-2.9,5.8-4.7,5.8l0,0c-1.8,0-2.4-1.1-0.7-5.7C39.2,34.6,40.8,32.4,42.8,32.4z M75.3,32.4L75.3,32.4c1.9,0,2.3,1.1,0.7,5.6
	s-2.9,5.8-4.7,5.8l0,0c-1.8,0-2.4-1.1-0.7-5.7C71.7,34.6,73.3,32.4,75.3,32.4L75.3,32.4z"/>
</svg>
